<svg width="24" height="24" viewBox="0 0 24 24" fill="none" xmlns="http://www.w3.org/2000/svg">
<path fill-rule="evenodd" clip-rule="evenodd" d="M8.25 6.00049C5.97182 6.00049 4.125 7.84731 4.125 10.1255C4.125 12.4037 5.97182 14.2505 8.25 14.2505C10.5282 14.2505 12.375 12.4037 12.375 10.1255C12.375 7.84731 10.5282 6.00049 8.25 6.00049ZM2.625 10.1255C2.625 7.01889 5.1434 4.50049 8.25 4.50049C11.3566 4.50049 13.875 7.01889 13.875 10.1255C13.875 13.2321 11.3566 15.7505 8.25 15.7505C5.1434 15.7505 2.625 13.2321 2.625 10.1255Z" fill="#3B424A"/>
<path fill-rule="evenodd" clip-rule="evenodd" d="M15.8881 4.50049L15.8904 4.50048C17.3823 4.50049 18.813 5.09312 19.8679 6.14801C20.9228 7.2029 21.5154 8.63364 21.5154 10.1255C21.5154 11.6173 20.9228 13.0481 19.8679 14.103C18.813 15.1579 17.3823 15.7505 15.8904 15.7505C15.4762 15.7505 15.1404 15.4147 15.1404 15.0005C15.1404 14.5863 15.4762 14.2505 15.8904 14.2505C16.9844 14.2505 18.0336 13.8159 18.8072 13.0423C19.5808 12.2687 20.0154 11.2195 20.0154 10.1255C20.0154 9.03147 19.5808 7.98226 18.8072 7.20867C18.0339 6.43535 16.9852 6.00079 15.8916 6.00049C15.511 6.00175 15.1322 6.05284 14.7649 6.15246C14.3651 6.26089 13.9531 6.0247 13.8447 5.62493C13.7363 5.22516 13.9725 4.81319 14.3722 4.70476C14.8664 4.57073 15.3761 4.50205 15.8881 4.50049Z" fill="#3B424A"/>
<path fill-rule="evenodd" clip-rule="evenodd" d="M8.25006 15.7502C7.0465 15.7502 5.86061 16.0398 4.79257 16.5946C3.72453 17.1495 2.8057 17.9532 2.1137 18.938C1.87554 19.2769 1.40775 19.3585 1.06884 19.1204C0.729942 18.8822 0.648271 18.4144 0.886427 18.0755C1.71683 16.8938 2.81942 15.9294 4.10107 15.2635C5.38272 14.5977 6.80579 14.2502 8.25006 14.2502C9.69434 14.2502 11.1174 14.5977 12.3991 15.2635C13.6807 15.9294 14.7833 16.8938 15.6137 18.0755C15.8519 18.4144 15.7702 18.8822 15.4313 19.1204C15.0924 19.3585 14.6246 19.2769 14.3864 18.938C13.6944 17.9532 12.7756 17.1495 11.7076 16.5946C10.6395 16.0398 9.45362 15.7502 8.25006 15.7502Z" fill="#3B424A"/>
<path fill-rule="evenodd" clip-rule="evenodd" d="M19.3486 16.5938C18.2806 16.039 17.0946 15.7497 15.8911 15.7505C15.4769 15.7507 15.1409 15.4152 15.1406 15.001C15.1404 14.5867 15.4759 14.2507 15.8902 14.2505C17.3347 14.2496 18.7582 14.5968 20.0401 15.2627C21.322 15.9285 22.4246 16.8935 23.2545 18.0758C23.4925 18.4149 23.4105 18.8826 23.0715 19.1206C22.7325 19.3586 22.2647 19.2767 22.0268 18.9376C21.3353 17.9525 20.4167 17.1486 19.3486 16.5938Z" fill="#3B424A"/>
</svg>
