<svg width="24" height="24" viewBox="0 0 24 24" fill="none" xmlns="http://www.w3.org/2000/svg">
<path fill-rule="evenodd" clip-rule="evenodd" d="M12 10.1255C10.3431 10.1255 9 11.4686 9 13.1255C9 14.7823 10.3431 16.1255 12 16.1255C13.6569 16.1255 15 14.7823 15 13.1255C15 11.4686 13.6569 10.1255 12 10.1255ZM7.5 13.1255C7.5 10.6402 9.51472 8.62549 12 8.62549C14.4853 8.62549 16.5 10.6402 16.5 13.1255C16.5 15.6108 14.4853 17.6255 12 17.6255C9.51472 17.6255 7.5 15.6108 7.5 13.1255Z" fill="#3B424A"/>
<path fill-rule="evenodd" clip-rule="evenodd" d="M20.5562 12.1382C19.8794 11.7998 19.1329 11.6242 18.3763 11.6255C17.962 11.6262 17.6257 11.291 17.625 10.8767C17.6243 10.4625 17.9595 10.1262 18.3737 10.1255C19.3641 10.1238 20.3412 10.3536 21.227 10.7965C22.1128 11.2394 22.8829 11.8832 23.4758 12.6765C23.7237 13.0083 23.6558 13.4783 23.324 13.7262C22.9922 13.9742 22.5222 13.9063 22.2742 13.5745C21.8213 12.9684 21.2329 12.4766 20.5562 12.1382Z" fill="#3B424A"/>
<path fill-rule="evenodd" clip-rule="evenodd" d="M5.62379 11.6255C4.86714 11.6242 4.12066 11.7998 3.44388 12.1382C2.76711 12.4766 2.17878 12.9684 1.7258 13.5745C1.47782 13.9063 1.00784 13.9742 0.676049 13.7262C0.344263 13.4783 0.27632 13.0083 0.524293 12.6765C1.11719 11.8832 1.88725 11.2394 2.77306 10.7965C3.65888 10.3536 4.63593 10.1238 5.6263 10.1255C6.04051 10.1262 6.37574 10.4625 6.37504 10.8767C6.37435 11.291 6.038 11.6262 5.62379 11.6255Z" fill="#3B424A"/>
<path fill-rule="evenodd" clip-rule="evenodd" d="M11.9998 17.6279C11.0146 17.6279 10.0493 17.9046 9.21374 18.4264C8.37818 18.9483 7.70598 19.6943 7.27373 20.5796C7.09198 20.9518 6.64291 21.1062 6.2707 20.9244C5.89849 20.7427 5.74408 20.2936 5.92583 19.9214C6.48137 18.7837 7.34528 17.8249 8.41915 17.1542C9.49302 16.4835 10.7337 16.1279 11.9998 16.1279C13.2659 16.1279 14.5065 16.4835 15.5804 17.1542C16.6543 17.8249 17.5182 18.7837 18.0737 19.9214C18.2555 20.2936 18.1011 20.7427 17.7289 20.9244C17.3566 21.1062 16.9076 20.9518 16.7258 20.5796C16.2936 19.6943 15.6214 18.9483 14.7858 18.4264C13.9503 17.9046 12.9849 17.6279 11.9998 17.6279Z" fill="#3B424A"/>
<path fill-rule="evenodd" clip-rule="evenodd" d="M6.18087 5.69598C5.7672 5.58992 5.33189 5.60378 4.92581 5.73593C4.51972 5.86808 4.15963 6.11307 3.8876 6.44227C3.61558 6.77147 3.44286 7.17129 3.38962 7.595C3.33639 8.01872 3.40484 8.44884 3.58697 8.8351C3.7691 9.22136 4.0574 9.54781 4.41818 9.77631C4.77895 10.0048 5.19731 10.1259 5.62435 10.1255C6.03857 10.1251 6.37469 10.4605 6.37511 10.8747C6.37553 11.2889 6.04009 11.6251 5.62588 11.6255C4.91413 11.6262 4.21687 11.4244 3.61558 11.0435C3.01429 10.6627 2.53379 10.1186 2.23024 9.47484C1.92668 8.83108 1.8126 8.11421 1.90132 7.40802C1.99005 6.70182 2.27792 6.03546 2.73129 5.48679C3.18466 4.93812 3.78482 4.52981 4.46163 4.30956C5.13844 4.0893 5.86396 4.06621 6.55341 4.24298C7.24285 4.41975 7.86776 4.78907 8.3551 5.3078C8.84245 5.82653 9.17211 6.47324 9.30556 7.17236C9.38323 7.57923 9.11636 7.97202 8.70949 8.04968C8.30262 8.12735 7.90983 7.86048 7.83217 7.45361C7.75209 7.03414 7.5543 6.64611 7.26189 6.33488C6.96948 6.02364 6.59454 5.80204 6.18087 5.69598Z" fill="#3B424A"/>
<path fill-rule="evenodd" clip-rule="evenodd" d="M19.0743 5.73593C18.6683 5.60378 18.2329 5.58992 17.8193 5.69598C17.4056 5.80204 17.0307 6.02364 16.7383 6.33488C16.4459 6.64611 16.2481 7.03414 16.168 7.45361C16.0903 7.86048 15.6975 8.12735 15.2907 8.04968C14.8838 7.97202 14.6169 7.57923 14.6946 7.17236C14.828 6.47324 15.1577 5.82653 15.645 5.3078C16.1324 4.78907 16.7573 4.41975 17.4467 4.24298C18.1362 4.06621 18.8617 4.0893 19.5385 4.30956C20.2153 4.52981 20.8155 4.93812 21.2689 5.48679C21.7222 6.03546 22.0101 6.70182 22.0988 7.40802C22.1876 8.11421 22.0735 8.83108 21.7699 9.47484C21.4664 10.1186 20.9859 10.6627 20.3846 11.0435C19.7833 11.4244 19.086 11.6262 18.3743 11.6255C17.9601 11.6251 17.6246 11.2889 17.625 10.8747C17.6255 10.4605 17.9616 10.1251 18.3758 10.1255C18.8028 10.1259 19.2212 10.0048 19.582 9.77631C19.9428 9.54781 20.231 9.22136 20.4132 8.8351C20.5953 8.44884 20.6638 8.01872 20.6105 7.595C20.5573 7.17129 20.3846 6.77147 20.1126 6.44227C19.8405 6.11307 19.4804 5.86808 19.0743 5.73593Z" fill="#3B424A"/>
</svg>
