<svg width="24" height="25" viewBox="0 0 24 25" fill="none" xmlns="http://www.w3.org/2000/svg">
<g id="Phosphor icons / ArrowLeft">
<path id="Vector (Stroke)" fill-rule="evenodd" clip-rule="evenodd" d="M3 12.0603C3 11.6461 3.33579 11.3103 3.75 11.3103H20.25C20.6642 11.3103 21 11.6461 21 12.0603C21 12.4745 20.6642 12.8103 20.25 12.8103H3.75C3.33579 12.8103 3 12.4745 3 12.0603Z" fill="black"/>
<path id="Vector (Stroke)_2" fill-rule="evenodd" clip-rule="evenodd" d="M11.0303 4.77997C11.3232 5.07287 11.3232 5.54774 11.0303 5.84063L4.81066 12.0603L11.0303 18.28C11.3232 18.5729 11.3232 19.0477 11.0303 19.3406C10.7374 19.6335 10.2626 19.6335 9.96967 19.3406L3.21967 12.5906C2.92678 12.2977 2.92678 11.8229 3.21967 11.53L9.96967 4.77997C10.2626 4.48708 10.7374 4.48708 11.0303 4.77997Z" fill="black"/>
</g>
</svg>
