<svg width="18" height="18" viewBox="0 0 18 18" fill="none" xmlns="http://www.w3.org/2000/svg">
<path fill-rule="evenodd" clip-rule="evenodd" d="M14.0962 3.90377C14.3013 4.10879 14.3013 4.44121 14.0962 4.64623L4.64623 14.0962C4.44121 14.3013 4.10879 14.3013 3.90377 14.0962C3.69874 13.8912 3.69874 13.5588 3.90377 13.3538L13.3538 3.90377C13.5588 3.69874 13.8912 3.69874 14.0962 3.90377Z" fill="black"/>
<path fill-rule="evenodd" clip-rule="evenodd" d="M3.90377 3.90377C4.10879 3.69874 4.44121 3.69874 4.64623 3.90377L14.0962 13.3538C14.3013 13.5588 14.3013 13.8912 14.0962 14.0962C13.8912 14.3013 13.5588 14.3013 13.3538 14.0962L3.90377 4.64623C3.69874 4.44121 3.69874 4.10879 3.90377 3.90377Z" fill="black"/>
</svg>
