<svg width="54" height="38" viewBox="0 0 54 38" fill="none" xmlns="http://www.w3.org/2000/svg">
<path id="Arrow 5" d="M3 16.75C1.61929 16.75 0.5 17.8693 0.5 19.25C0.5 20.6307 1.61929 21.75 3 21.75L3 16.75ZM52.7678 21.0178C53.7441 20.0415 53.7441 18.4585 52.7678 17.4822L36.8579 1.57233C35.8816 0.596023 34.2986 0.596022 33.3223 1.57233C32.346 2.54864 32.346 4.13156 33.3223 5.10787L47.4645 19.25L33.3223 33.3921C32.346 34.3684 32.346 35.9514 33.3223 36.9277C34.2986 37.904 35.8816 37.904 36.8579 36.9277L52.7678 21.0178ZM3 21.75L51 21.75L51 16.75L3 16.75L3 21.75Z" fill="#10B981"/>
</svg>
