<svg xmlns="http://www.w3.org/2000/svg" width="37" height="49" viewBox="0 0 37 49" fill="none">
  <g clip-path="url(#clip0_1541_17175)">
    <path d="M23.2485 0C24.578 1.31556 25.9266 2.61206 27.2372 3.92763C29.2125 5.91051 31.1499 7.91245 33.1253 9.87626C33.6571 10.4101 33.885 10.944 33.866 11.7257C33.809 14.1471 33.847 16.5494 33.847 18.9708C33.847 19.314 33.847 19.6572 33.847 20.0576C33.2582 20.0576 32.7644 20.0576 32.1376 20.0576C32.1376 17.3311 32.1376 14.6237 32.1376 11.8401C29.6874 11.8401 27.3891 11.8401 25.0719 11.8401C23.1155 11.8401 22.1278 10.8296 22.1088 8.84669C22.1088 6.50156 22.1088 4.15642 22.1088 1.73502C21.7479 1.73502 21.463 1.73502 21.1971 1.73502C15.0241 1.71595 8.83214 1.73502 2.65914 1.69689C1.82341 1.69689 1.59548 1.92568 1.59548 2.76459C1.61448 15.1576 1.61448 27.5506 1.59548 39.9436C1.59548 40.7825 1.82341 41.0304 2.65914 41.0113C6.30595 40.9732 9.93378 40.9922 13.6566 40.9922C13.6566 41.5451 13.6566 42.0599 13.6566 42.6319C13.4096 42.651 13.1627 42.6891 12.9158 42.6891C9.43994 42.6891 5.94507 42.6891 2.4692 42.6891C0.664784 42.6891 0.0189938 42.0409 0.0189938 40.2296C0.0189938 27.6459 0.0379877 15.0623 0 2.4786C0 1.22023 0.398871 0.400389 1.57649 0C8.79415 0 16.0308 0 23.2485 0ZM30.77 10.1241C28.3578 7.75992 26.0785 5.51012 23.8183 3.29844C23.8183 5.18599 23.7803 7.16887 23.8563 9.17082C23.8753 9.49494 24.3691 10.0669 24.654 10.086C26.6673 10.1623 28.6807 10.1241 30.77 10.1241Z" fill="#1464DF"/>
    <path d="M18.5002 49C17.6834 48.5615 17.4365 47.8751 17.4365 46.9599C17.4555 39.8101 17.4555 32.6603 17.4555 25.5105C17.4555 23.9471 17.9494 23.4514 19.4879 23.4514C24.6732 23.4514 29.8775 23.4514 35.0628 23.4514C36.5063 23.4514 36.9812 23.928 36.9812 25.3961C36.9812 32.6031 36.9622 39.8101 37.0002 47.0362C37.0002 47.9132 36.7343 48.5615 35.9935 49C30.1434 49 24.3313 49 18.5002 49ZM35.9935 36.2638C35.9935 32.6794 35.9745 29.0949 36.0125 25.4914C36.0125 24.7669 35.8226 24.4619 35.0628 24.4619C29.8395 24.4809 24.6162 24.4809 19.3929 24.4619C18.7091 24.4619 18.4622 24.6907 18.4812 25.4152C18.5002 32.6222 18.5002 39.8292 18.4812 47.0362C18.4812 47.7988 18.7281 48.0276 19.4689 48.0276C24.6542 48.0086 29.8585 48.0086 35.0438 48.0276C35.7846 48.0276 36.0315 47.7607 36.0125 47.0171C35.9745 43.4327 35.9935 39.8482 35.9935 36.2638Z" fill="#1464DF"/>
    <path d="M16.9806 18.6658C20.0576 18.6658 23.1156 18.6658 26.1926 18.6658C26.8384 18.6658 27.5031 18.6658 27.5221 19.4856C27.5221 20.2483 26.9143 20.4008 26.2306 20.4008C20.0006 20.4008 13.7706 20.4008 7.54062 20.4008C6.83785 20.4008 6.21105 20.2673 6.28702 19.3903C6.32501 18.723 6.85684 18.6658 7.40766 18.6658C10.5986 18.6848 13.7896 18.6658 16.9806 18.6658Z" fill="#1464DF"/>
    <path d="M14.6633 14.5284C12.2511 14.5284 9.85785 14.5284 7.44564 14.5284C6.83783 14.5284 6.24902 14.4903 6.24902 13.6895C6.26802 12.8887 6.87582 12.8315 7.46463 12.8315C12.2511 12.8315 17.0185 12.8315 21.805 12.8315C21.862 12.8315 21.9379 12.8315 21.9949 12.8315C22.5837 12.8697 23.0966 13.0413 23.0586 13.7658C23.0206 14.4331 22.5267 14.5284 21.9759 14.5284C19.5447 14.5094 17.0945 14.5284 14.6633 14.5284Z" fill="#1464DF"/>
    <path d="M10.0098 6.86381C10.9594 6.86381 11.9091 6.88287 12.8398 6.86381C13.4666 6.84474 13.9035 7.16887 13.7895 7.74085C13.7325 8.06498 13.2007 8.54163 12.8588 8.54163C10.9784 8.61789 9.07906 8.61789 7.17967 8.54163C6.85678 8.52256 6.34394 8.04591 6.28696 7.72179C6.19199 7.13073 6.64785 6.84474 7.25565 6.86381C8.16735 6.86381 9.09805 6.86381 10.0098 6.86381Z" fill="#1464DF"/>
    <path d="M10.0288 26.1588C8.98418 26.1588 7.93952 26.216 6.89486 26.1207C6.60995 26.1016 6.34404 25.6821 6.07812 25.4343C6.34404 25.1673 6.59096 24.6716 6.85687 24.6716C8.98418 24.6144 11.0925 24.6144 13.2198 24.6716C13.4857 24.6716 13.7326 25.1673 13.9796 25.4343C13.7136 25.6631 13.4477 26.0825 13.1628 26.1016C12.1182 26.1969 11.0735 26.1588 10.0288 26.1588Z" fill="#1464DF"/>
    <path d="M10.0287 32.0502C9.02199 32.0502 7.99632 32.0502 6.98965 32.0502C6.47682 32.0502 6.00197 31.8977 6.13493 31.3448C6.2109 31.0206 6.66676 30.5631 6.97066 30.5631C9.02199 30.4868 11.0923 30.4868 13.1437 30.5631C13.4286 30.5821 13.9034 31.0397 13.9604 31.3638C14.0744 31.9358 13.5805 32.0693 13.0867 32.0502C12.061 32.0312 11.0353 32.0502 10.0287 32.0502Z" fill="#1464DF"/>
    <path d="M27.1993 26.2922C29.2506 26.2922 31.321 26.3304 33.3723 26.2732C34.227 26.2541 34.6069 26.5401 34.5689 27.4171C34.5309 28.523 34.5309 29.6479 34.5689 30.7537C34.5879 31.5736 34.246 31.8595 33.4293 31.8595C29.2886 31.8405 25.129 31.8405 20.9883 31.8595C20.2286 31.8595 19.8677 31.5736 19.8677 30.8109C19.8677 29.6288 19.8677 28.4658 19.8677 27.2837C19.8677 26.5782 20.1906 26.2732 20.9313 26.2922C23.0207 26.3113 25.11 26.2922 27.1993 26.2922ZM33.7142 27.1311C29.3646 27.1311 25.053 27.1311 20.7604 27.1311C20.7604 28.4848 20.7604 29.7432 20.7604 31.0016C25.129 31.0016 29.4216 31.0016 33.7142 31.0016C33.7142 29.686 33.7142 28.4276 33.7142 27.1311Z" fill="#1464DF"/>
    <path d="M27.2374 36.9502C27.0474 36.9502 26.8575 36.9311 26.6675 36.9502C25.9078 37.0646 25.6799 36.7404 25.7178 35.9778C25.7938 33.9949 25.4519 34.3 27.4273 34.3C27.8641 34.3 28.6239 34.4144 28.6619 34.586C28.7948 35.2723 28.8138 36.0541 28.6239 36.7214C28.5669 36.9502 27.7312 36.9502 27.2563 37.0455C27.2374 37.0264 27.2374 36.9883 27.2374 36.9502Z" fill="#1464DF"/>
    <path d="M27.1801 41.5833C26.9332 41.5833 26.6673 41.5642 26.4204 41.5833C25.8885 41.6214 25.6986 41.3926 25.7176 40.8588C25.7746 38.609 25.4327 38.9331 27.579 38.9331C27.9589 38.9331 28.6616 39.1047 28.6806 39.2763C28.7756 39.9817 28.7756 40.7444 28.5667 41.3926C28.4907 41.6023 27.655 41.5642 27.1801 41.6405C27.1801 41.6405 27.1801 41.6214 27.1801 41.5833Z" fill="#1464DF"/>
    <path d="M20.5892 34.3C21.311 34.3 21.8998 34.3572 22.4506 34.2809C23.4383 34.1475 23.7802 34.5669 23.6282 35.5012C23.5523 35.9778 23.4953 36.7977 23.3243 36.8358C22.5076 36.9693 21.6529 36.893 20.7982 36.8549C20.7222 36.8549 20.6082 36.607 20.6082 36.4735C20.5702 35.7872 20.5892 35.1008 20.5892 34.3Z" fill="#1464DF"/>
    <path d="M32.3845 34.3C32.6124 34.3 32.8213 34.319 33.0493 34.3C33.7141 34.2237 33.923 34.4906 33.904 35.158C33.847 37.2362 34.1699 36.9502 32.0996 36.9502C31.7007 36.9502 30.9789 36.8167 30.9599 36.6451C30.846 35.9397 30.827 35.177 31.0169 34.5097C31.0739 34.3 31.9096 34.3 32.3845 34.2047C32.3845 34.2428 32.3845 34.2618 32.3845 34.3Z" fill="#1464DF"/>
    <path d="M20.6841 41.5833C20.6272 41.3354 20.5892 41.2592 20.5892 41.1638C20.4562 38.8759 20.7221 38.609 22.9824 38.9522C23.2293 38.9903 23.4192 39.3525 23.6282 39.5623C23.6472 39.5813 23.6282 39.6195 23.6282 39.6576C23.7801 41.5833 23.7801 41.5833 21.8428 41.5833C21.4629 41.5833 21.102 41.5833 20.6841 41.5833Z" fill="#1464DF"/>
    <path d="M32.3654 41.5833C32.0425 41.5833 31.7196 41.6595 31.4347 41.5642C31.2068 41.4879 31.0358 41.2019 30.8649 41.0113C30.8459 40.9922 30.8649 40.9541 30.8649 40.9159C30.9409 40.2868 30.8459 39.219 31.1308 39.1047C31.8336 38.8187 32.7263 38.9521 33.524 38.9712C33.657 38.9712 33.8089 39.2572 33.8659 39.4288C33.9229 39.6385 33.8849 39.8673 33.8849 40.077C33.8659 41.7548 34.1318 41.5833 32.3654 41.5833Z" fill="#1464DF"/>
    <path d="M20.5892 43.6615C21.5199 43.6615 22.2987 43.6234 23.0774 43.6806C23.2674 43.6996 23.4383 43.9856 23.6282 44.1572C23.6472 44.1763 23.6282 44.2144 23.6282 44.2526C23.5713 44.9008 23.6852 46.0066 23.4193 46.102C22.6785 46.388 21.7668 46.2736 20.9311 46.2545C20.8171 46.2545 20.6272 45.9494 20.6082 45.7778C20.5702 45.1296 20.5892 44.4623 20.5892 43.6615Z" fill="#1464DF"/>
    <path d="M27.199 43.6615C28.7185 43.6615 29.2883 44.3478 28.6995 45.8922C28.3386 46.8264 27.3129 46.1973 26.5912 46.2926C26.3253 46.3307 25.7934 46.0638 25.7554 45.8731C25.6415 45.3011 25.6795 44.672 25.7364 44.0809C25.7554 43.9284 26.0403 43.7377 26.2303 43.6805C26.5532 43.6043 26.8761 43.6615 27.199 43.6615Z" fill="#1464DF"/>
    <path d="M32.3843 43.6615C33.8278 43.6615 34.4546 44.4622 33.8468 45.9113C33.4289 46.8646 32.3273 46.1782 31.5485 46.2926C31.3586 46.3116 31.0737 45.9113 30.8837 45.6443C30.8078 45.549 30.8648 45.3393 30.8648 45.1867C30.8648 43.4708 30.6748 43.6615 32.3843 43.6615Z" fill="#1464DF"/>
  </g>
  <defs>
    <clipPath id="clip0_1541_17175">
      <rect width="37" height="49" fill="white"/>
    </clipPath>
  </defs>
</svg>