<svg xmlns="http://www.w3.org/2000/svg" width="51" height="45" viewBox="0 0 51 45" fill="none">
  <g clip-path="url(#clip0_1541_16963)">
    <path d="M2.83696 33.607C3.46374 33.607 4.09052 33.607 4.78327 33.607C4.79977 33.9267 4.81626 34.2128 4.81626 34.5157C4.81626 36.5856 4.81626 38.6724 4.81626 40.7423C4.81626 42.1223 5.54201 42.8796 6.87804 42.8796C16.4941 42.8796 26.1102 42.8796 35.7264 42.8796C36.9964 42.8796 37.7057 42.1896 37.7386 40.8601C37.7716 39.8168 37.7057 38.7902 37.7057 37.7468C37.7057 26.7072 37.7057 15.6507 37.7057 4.61107C37.7057 2.62528 37.2438 2.15408 35.3305 2.15408C25.9123 2.15408 16.4776 2.15408 7.05947 2.15408C5.34408 2.15408 4.79977 2.70942 4.79977 4.47644C4.79977 6.76515 4.79977 9.05385 4.79977 11.4099C4.10701 11.4099 3.48023 11.4099 2.86995 11.4099C2.83696 11.3762 2.77098 11.3257 2.77098 11.2921C2.77098 8.64996 2.68851 6.02468 2.78748 3.3994C2.90294 1.4641 4.68431 0 6.68011 0C13.5582 0 20.4198 0 27.2978 0C30.0194 0 32.7409 0 35.4624 0C38.3489 0 39.8829 1.53141 39.8829 4.49327C39.8994 8.53216 39.8829 12.5711 39.8829 16.6099C39.8829 24.6036 39.8829 32.5972 39.8829 40.5909C39.8829 42.4925 39.2231 43.9903 37.4088 44.7307C36.9799 44.899 36.5016 45 36.0562 45C26.2257 45.0168 16.3787 45.0168 6.54815 45C4.55236 45 2.83696 43.334 2.80397 41.2977C2.75449 38.8575 2.78748 36.4174 2.78748 33.9772C2.77098 33.8762 2.80397 33.7584 2.83696 33.607Z" fill="#66960B"/>
    <path d="M47.9485 26.3874C45.8702 26.3874 44.0394 26.3874 42.0601 26.3874C42.0601 25.4282 42.0436 24.5194 42.0601 23.6107C42.159 20.0094 42.159 16.3912 42.4229 12.7898C42.5879 10.5011 43.0332 8.19559 44.6167 6.34443C44.7486 6.19297 44.7156 5.92371 44.8146 5.73859C44.8971 5.58714 45.0455 5.38519 45.1775 5.38519C45.3094 5.38519 45.4909 5.57031 45.5568 5.70494C45.8207 6.26028 46.1011 6.7988 46.2826 7.38781C46.7114 8.73411 47.3382 10.0972 47.4207 11.4772C47.7176 16.408 47.8 21.3556 47.9485 26.3874Z" fill="#66960B"/>
    <path d="M42.3073 27.9693C44.0062 27.9693 45.6722 27.9525 47.3381 27.9862C47.503 27.9862 47.7834 28.3227 47.7834 28.491C47.7009 31.8736 47.635 35.2393 47.47 38.6051C47.404 39.9346 46.5958 40.6245 45.4247 40.6918C43.8908 40.7928 43.0661 40.2711 42.6867 38.908C42.5053 38.2685 42.3403 37.6122 42.3238 36.9559C42.2909 33.994 42.3073 31.0322 42.3073 27.9693Z" fill="#66960B"/>
    <path d="M15.4054 36.1986C13.4426 36.4174 11.2654 34.583 11.2489 31.9577C11.2324 29.7027 13.1787 27.7674 15.4219 27.7674C17.7146 27.7674 19.6444 29.7027 19.6114 32.0082C19.5949 34.3306 17.6321 36.4174 15.4054 36.1986ZM15.4384 34.6672C16.8734 34.6672 18.0775 33.4892 18.1105 32.0419C18.1435 30.6619 16.8899 29.3661 15.5209 29.3325C14.0034 29.2988 12.8818 30.4432 12.8818 32.0082C12.8653 33.5396 13.9539 34.6672 15.4384 34.6672Z" fill="#66960B"/>
    <path d="M27.875 13.4125C26.1761 13.4125 24.4772 13.4125 22.7783 13.4125C21.7887 13.4125 21.2773 12.9918 21.2938 12.2513C21.3103 11.5277 21.8052 11.1238 22.7288 11.1238C26.2091 11.1238 29.6894 11.1238 33.1697 11.1238C34.0933 11.1238 34.5717 11.5445 34.5552 12.285C34.5387 13.0254 34.0933 13.3957 33.1367 13.4125C31.3883 13.4125 29.6399 13.4125 27.875 13.4125Z" fill="#66960B"/>
    <path d="M27.9741 30.8975C29.739 30.8975 31.4874 30.8975 33.2523 30.8975C34.1264 30.8975 34.5883 31.3183 34.5883 32.0251C34.5718 32.715 34.077 33.1358 33.2358 33.1358C29.7225 33.1358 26.1927 33.1358 22.6795 33.1358C21.8053 33.1358 21.327 32.7319 21.3105 32.0419C21.294 31.3014 21.7723 30.9144 22.7125 30.8975C24.4444 30.8975 26.2092 30.8975 27.9741 30.8975Z" fill="#66960B"/>
    <path d="M27.9246 23.2236C26.1433 23.2236 24.3619 23.2236 22.564 23.2236C21.7228 23.2236 21.294 22.8534 21.2775 22.1634C21.261 21.5239 21.7723 21.0191 22.531 21.0191C26.1268 21.0022 29.7225 21.0022 33.3182 21.0191C34.0605 21.0191 34.5718 21.5071 34.5553 22.1634C34.5553 22.8534 34.11 23.2068 33.2688 23.2068C31.5039 23.2236 29.7225 23.2236 27.9246 23.2236Z" fill="#66960B"/>
    <path d="M2.91947 21.5744C3.36481 21.5744 3.79366 21.5744 4.239 21.5744C4.83279 21.5912 5.3771 21.5576 5.87193 21.0527C6.5152 20.3964 7.62031 20.5815 8.2141 21.2883C8.80789 21.9783 8.74191 23.1563 8.08215 23.8126C7.47186 24.4185 6.36675 24.4016 5.674 23.8463C5.36061 23.5939 4.93176 23.4088 4.5359 23.3919C3.33182 23.3414 2.12775 23.3583 0.923674 23.3751C0.296895 23.3919 0 23.1058 0 22.4832C0.0164942 21.8773 0.329884 21.5744 0.940168 21.5744C1.59994 21.5912 2.2597 21.5744 2.91947 21.5744Z" fill="#66960B"/>
    <path d="M2.86987 30.6114C3.36469 30.6114 3.85952 30.5946 4.35434 30.6114C4.88216 30.6283 5.3275 30.561 5.75635 30.1402C6.39962 29.5007 7.55422 29.6186 8.14801 30.258C8.7253 30.8975 8.75829 32.1092 8.19749 32.7319C7.62019 33.405 6.48209 33.4555 5.72336 32.917C5.344 32.6645 4.86566 32.4626 4.42032 32.4458C3.29872 32.3785 2.16062 32.4121 1.03901 32.4289C0.379248 32.4289 -0.0331069 32.1933 -0.0166128 31.4697C-0.000118572 30.7797 0.445224 30.5946 1.03901 30.5946C1.66579 30.6283 2.27608 30.6114 2.86987 30.6114Z" fill="#66960B"/>
    <path d="M2.86986 12.6047C3.28222 12.6047 3.69457 12.5879 4.10692 12.6047C4.78319 12.6384 5.34399 12.5374 5.8883 12.0325C6.56456 11.393 7.63668 11.5782 8.23047 12.3018C8.79127 12.9749 8.74179 14.1698 8.148 14.7588C7.48823 15.4151 6.39961 15.5161 5.77284 14.8598C5.34399 14.4054 4.91514 14.3549 4.38733 14.3549C3.26572 14.3717 2.14412 14.3549 1.02251 14.3549C0.428723 14.3549 -0.0166198 14.153 0.0163685 13.4461C0.0328627 12.7562 0.461711 12.5711 1.072 12.5879C1.66579 12.6215 2.25958 12.6047 2.86986 12.6047Z" fill="#66960B"/>
    <path d="M14.5642 12.4364C15.7518 11.3426 16.9063 10.2823 18.0609 9.20531C18.4238 8.86874 18.8032 8.58265 19.265 9.03702C19.6939 9.45774 19.4464 9.8448 19.1496 10.215C17.962 11.6455 16.7909 13.0759 15.5868 14.4895C14.7291 15.4824 14.0364 15.3983 13.3931 14.2539C12.9972 13.5471 12.5849 12.8571 12.2715 12.1167C12.156 11.8642 12.222 11.2921 12.3869 11.1911C12.6344 11.0396 13.1292 11.0565 13.3766 11.2248C13.8384 11.5445 14.1683 12.0157 14.5642 12.4364Z" fill="#66960B"/>
    <path d="M14.5808 22.6178C15.7849 21.5071 16.9394 20.4301 18.094 19.3699C18.4404 19.0501 18.7868 18.7809 19.2321 19.1847C19.6775 19.6055 19.4631 19.9757 19.1497 20.3459C17.9126 21.8437 16.7085 23.3583 15.455 24.8224C14.8282 25.5628 13.9705 25.4282 13.4922 24.5868C13.0798 23.8631 12.651 23.1395 12.3376 22.3822C12.2221 22.0793 12.3871 21.6417 12.4365 21.2715C12.7994 21.3388 13.2447 21.322 13.5251 21.5071C13.921 21.7764 14.2179 22.2139 14.5808 22.6178Z" fill="#66960B"/>
    <path d="M50.9999 31.5707C50.9999 33.1694 50.9999 34.7681 50.9999 36.3669C50.9999 36.5688 50.9999 36.7539 50.9999 36.9559C50.9669 37.4944 50.637 37.8646 50.1587 37.7468C49.8618 37.6795 49.4494 37.2251 49.4494 36.939C49.4 33.405 49.4165 29.8878 49.4165 26.3538C49.4165 25.7984 49.7793 25.4282 50.2082 25.4955C50.5051 25.546 50.9504 26.0509 50.9669 26.3538C51.0329 28.104 50.9999 29.8373 50.9999 31.5707Z" fill="#66960B"/>
    <path d="M2.83691 15.5329C3.49668 15.5329 4.10697 15.5329 4.78323 15.5329C4.78323 17.1821 4.78323 18.7809 4.78323 20.4469C4.13995 20.4469 3.52967 20.4469 2.83691 20.4469C2.83691 18.8482 2.83691 17.2158 2.83691 15.5329Z" fill="#66960B"/>
    <path d="M4.78312 24.6204C4.78312 26.2528 4.78312 27.8515 4.78312 29.5007C4.12335 29.5007 3.51307 29.5007 2.82031 29.5007C2.82031 27.8852 2.82031 26.2696 2.82031 24.6204C3.46359 24.6204 4.10686 24.6204 4.78312 24.6204Z" fill="#66960B"/>
  </g>
  <defs>
    <clipPath id="clip0_1541_16963">
      <rect width="51" height="45" fill="white"/>
    </clipPath>
  </defs>
</svg>