<svg xmlns="http://www.w3.org/2000/svg" width="47" height="48" viewBox="0 0 47 48" fill="none">
  <path fill-rule="evenodd" clip-rule="evenodd" d="M23.5002 20.6082C20.282 20.6082 17.6732 23.217 17.6732 26.4351C17.6732 29.6532 20.282 32.262 23.5002 32.262C26.7183 32.262 29.3271 29.6532 29.3271 26.4351C29.3271 23.217 26.7183 20.6082 23.5002 20.6082ZM14.7598 26.4351C14.7598 21.6079 18.673 17.6947 23.5002 17.6947C28.3273 17.6947 32.2405 21.6079 32.2405 26.4351C32.2405 31.2623 28.3273 35.1755 23.5002 35.1755C18.673 35.1755 14.7598 31.2623 14.7598 26.4351Z" fill="#10B981"/>
  <path fill-rule="evenodd" clip-rule="evenodd" d="M40.119 24.5175C38.8045 23.8602 37.3546 23.5192 35.8849 23.5217C35.0804 23.523 34.4271 22.8719 34.4258 22.0674C34.4244 21.2629 35.0755 20.6096 35.8801 20.6082C37.8037 20.605 39.7014 21.0513 41.4219 21.9116C43.1425 22.7719 44.6382 24.0223 45.7897 25.5631C46.2714 26.2075 46.1394 27.1204 45.495 27.602C44.8506 28.0836 43.9377 27.9517 43.4561 27.3072C42.5762 26.13 41.4335 25.1747 40.119 24.5175Z" fill="#10B981"/>
  <path fill-rule="evenodd" clip-rule="evenodd" d="M11.1157 23.5217C9.64601 23.5192 8.19612 23.8602 6.88162 24.5175C5.56712 25.1747 4.42439 26.13 3.54456 27.3072C3.06292 27.9517 2.15006 28.0836 1.50563 27.602C0.861198 27.1204 0.729231 26.2075 1.21087 25.5631C2.36246 24.0223 3.85816 22.7719 5.57868 21.9116C7.2992 21.0513 9.19694 20.605 11.1205 20.6082C11.9251 20.6096 12.5762 21.2629 12.5748 22.0674C12.5735 22.8719 11.9202 23.523 11.1157 23.5217Z" fill="#10B981"/>
  <path fill-rule="evenodd" clip-rule="evenodd" d="M23.4997 35.1801C21.5863 35.1801 19.7113 35.7175 18.0884 36.7311C16.4655 37.7447 15.1598 39.1938 14.3203 40.9132C13.9673 41.6362 13.095 41.936 12.3721 41.583C11.6491 41.23 11.3492 40.3578 11.7022 39.6348C12.7813 37.425 14.4593 35.5627 16.545 34.26C18.6308 32.9573 21.0406 32.2667 23.4997 32.2667C25.9589 32.2667 28.3686 32.9573 30.4544 34.26C32.5402 35.5627 34.2182 37.425 35.2972 39.6348C35.6502 40.3578 35.3503 41.23 34.6274 41.583C33.9044 41.936 33.0322 41.6362 32.6792 40.9132C31.8396 39.1938 30.534 37.7447 28.9111 36.7311C27.2881 35.7175 25.4132 35.1801 23.4997 35.1801Z" fill="#10B981"/>
  <path fill-rule="evenodd" clip-rule="evenodd" d="M12.1976 12.0047C11.3942 11.7987 10.5487 11.8256 9.75991 12.0823C8.97117 12.339 8.27175 12.8148 7.7434 13.4542C7.21504 14.0937 6.87957 14.8702 6.77617 15.6932C6.67277 16.5162 6.80572 17.3516 7.15948 18.1019C7.51324 18.8521 8.0732 19.4862 8.77394 19.93C9.47467 20.3738 10.2872 20.609 11.1167 20.6082C11.9212 20.6074 12.5741 21.2589 12.5749 22.0634C12.5757 22.868 11.9242 23.5208 11.1197 23.5217C9.73723 23.5231 8.38294 23.131 7.21505 22.3913C6.04715 21.6516 5.11388 20.5948 4.52428 19.3444C3.93468 18.094 3.7131 16.7017 3.88543 15.33C4.05777 13.9584 4.61689 12.6641 5.49748 11.5984C6.37807 10.5327 7.54376 9.73966 8.85834 9.31186C10.1729 8.88407 11.5821 8.83922 12.9212 9.18255C14.2603 9.52589 15.4741 10.2432 16.4207 11.2508C17.3672 12.2583 18.0075 13.5144 18.2667 14.8723C18.4176 15.6626 17.8993 16.4255 17.109 16.5763C16.3187 16.7272 15.5558 16.2088 15.405 15.4186C15.2494 14.6038 14.8653 13.8502 14.2973 13.2457C13.7294 12.6411 13.0011 12.2107 12.1976 12.0047Z" fill="#10B981"/>
  <path fill-rule="evenodd" clip-rule="evenodd" d="M37.2405 12.0823C36.4517 11.8256 35.6062 11.7987 34.8027 12.0047C33.9993 12.2107 33.271 12.6411 32.7031 13.2457C32.1351 13.8502 31.7509 14.6038 31.5954 15.4186C31.4446 16.2088 30.6816 16.7272 29.8914 16.5763C29.1011 16.4255 28.5828 15.6626 28.7336 14.8723C28.9928 13.5144 29.6331 12.2583 30.5797 11.2508C31.5263 10.2432 32.74 9.52589 34.0792 9.18255C35.4183 8.83922 36.8275 8.88407 38.142 9.31186C39.4566 9.73966 40.6223 10.5327 41.5029 11.5984C42.3835 12.6641 42.9426 13.9584 43.1149 15.33C43.2873 16.7017 43.0657 18.094 42.4761 19.3444C41.8865 20.5948 40.9532 21.6516 39.7853 22.3913C38.6174 23.131 37.2631 23.5231 35.8807 23.5217C35.0762 23.5208 34.4246 22.868 34.4255 22.0634C34.4263 21.2589 35.0791 20.6074 35.8837 20.6082C36.7131 20.609 37.5257 20.3738 38.2264 19.93C38.9272 19.4862 39.4871 18.8521 39.8409 18.1019C40.1947 17.3516 40.3276 16.5162 40.2242 15.6932C40.1208 14.8702 39.7853 14.0937 39.257 13.4542C38.7286 12.8148 38.0292 12.339 37.2405 12.0823Z" fill="#10B981"/>
</svg>