<svg width="54" height="38" viewBox="0 0 54 38" fill="none" xmlns="http://www.w3.org/2000/svg">
<path id="Arrow 4" d="M3 16.3333C1.61929 16.3333 0.5 17.4526 0.5 18.8333C0.5 20.214 1.61929 21.3333 3 21.3333L3 16.3333ZM52.7678 20.6011C53.7441 19.6248 53.7441 18.0419 52.7678 17.0656L36.8579 1.15566C35.8816 0.179351 34.2986 0.179351 33.3223 1.15566C32.346 2.13197 32.346 3.71488 33.3223 4.6912L47.4645 18.8333L33.3223 32.9755C32.346 33.9518 32.346 35.5347 33.3223 36.511C34.2986 37.4873 35.8816 37.4873 36.8579 36.511L52.7678 20.6011ZM3 21.3333L51 21.3333L51 16.3333L3 16.3333L3 21.3333Z" fill="#FBDCA6"/>
</svg>
