<svg xmlns="http://www.w3.org/2000/svg" width="53" height="52" viewBox="0 0 53 52" fill="none">
  <path fill-rule="evenodd" clip-rule="evenodd" d="M8.28125 8.21875C9.19597 8.21875 9.9375 8.9323 9.9375 9.8125V43.2812C9.9375 44.1615 9.19597 44.875 8.28125 44.875C7.36653 44.875 6.625 44.1615 6.625 43.2812V9.8125C6.625 8.9323 7.36653 8.21875 8.28125 8.21875Z" fill="#E11D48"/>
  <path fill-rule="evenodd" clip-rule="evenodd" d="M35.4694 10.9166C38.0659 11.1751 40.7537 10.6819 43.7251 8.53748C44.227 8.17527 44.8984 8.11701 45.4595 8.38698C46.0207 8.65695 46.3751 9.20881 46.3751 9.81248V33.7187C46.3751 34.2204 46.1297 34.6927 45.7126 34.9937C42.059 37.6305 38.5359 38.3327 35.1285 37.9935C31.8748 37.6696 28.78 36.3931 25.9603 35.2301L25.8477 35.1836C22.9006 33.9682 20.2377 32.884 17.5308 32.6146C14.9343 32.3561 12.2465 32.8493 9.2751 34.9937C8.54332 35.5218 7.50518 35.3791 6.95635 34.675C6.40751 33.9708 6.55582 32.9718 7.2876 32.4437C10.9412 29.8069 14.4643 29.1048 17.8717 29.444C21.1254 29.7679 24.2202 31.0444 27.0399 32.2074L27.1525 32.2538C30.0996 33.4692 32.7625 34.5534 35.4694 34.8229C37.8715 35.062 40.3519 34.6578 43.0626 32.8979V12.6844C40.3475 14.0048 37.7049 14.3437 35.1285 14.0872C31.8748 13.7633 28.78 12.4868 25.9603 11.3238L25.8477 11.2774C22.9006 10.062 20.2377 8.97776 17.5308 8.70831C14.9343 8.44984 12.2465 8.94302 9.2751 11.0875C8.54332 11.6156 7.50518 11.4729 6.95635 10.7687C6.40751 10.0646 6.55582 9.0656 7.2876 8.53748C10.9412 5.90068 14.4643 5.19855 17.8717 5.53773C21.1254 5.86162 24.2202 7.13813 27.0399 8.30113L27.1525 8.34759C30.0996 9.56297 32.7625 10.6472 35.4694 10.9166Z" fill="#E11D48"/>
</svg>