<svg width="54" height="37" viewBox="0 0 54 37" fill="none" xmlns="http://www.w3.org/2000/svg">
<path id="Arrow 4" d="M3 16C1.61929 16 0.5 17.1193 0.5 18.5C0.5 19.8807 1.61929 21 3 21L3 16ZM52.7678 20.2678C53.7441 19.2915 53.7441 17.7085 52.7678 16.7322L36.8579 0.822333C35.8816 -0.153977 34.2986 -0.153978 33.3223 0.822333C32.346 1.79864 32.346 3.38156 33.3223 4.35787L47.4645 18.5L33.3223 32.6421C32.346 33.6184 32.346 35.2014 33.3223 36.1777C34.2986 37.154 35.8816 37.154 36.8579 36.1777L52.7678 20.2678ZM3 21L51 21L51 16L3 16L3 21Z" fill="#1464DF"/>
</svg>
