<svg width="54" height="38" viewBox="0 0 54 38" fill="none" xmlns="http://www.w3.org/2000/svg">
<path id="Arrow 4" d="M3 16.25C1.61929 16.25 0.5 17.3693 0.5 18.75C0.5 20.1307 1.61929 21.25 3 21.25L3 16.25ZM52.7678 20.5178C53.7441 19.5415 53.7441 17.9585 52.7678 16.9822L36.8579 1.07233C35.8816 0.0960226 34.2986 0.0960225 33.3223 1.07233C32.346 2.04864 32.346 3.63156 33.3223 4.60787L47.4645 18.75L33.3223 32.8921C32.346 33.8684 32.346 35.4514 33.3223 36.4277C34.2986 37.404 35.8816 37.404 36.8579 36.4277L52.7678 20.5178ZM3 21.25L51 21.25L51 16.25L3 16.25L3 21.25Z" fill="#E11D48"/>
</svg>
