<svg width="77" height="64" viewBox="0 0 77 64" fill="none" xmlns="http://www.w3.org/2000/svg">
<g clip-path="url(#clip0_1348_14769)">
<path d="M46.1012 9.17544C46.0965 9.36826 46.0847 9.55638 46.0635 9.7445C45.9903 10.464 45.8157 11.153 45.5537 11.7973C44.4092 14.6144 41.6011 16.5685 38.3706 16.4838C37.8113 16.4697 37.2685 16.3945 36.7494 16.2651C35.9754 16.0747 35.2486 15.7643 34.5902 15.3551C33.9554 14.9624 33.3843 14.478 32.8959 13.9207C32.4994 13.4692 32.1572 12.9707 31.8764 12.4346C31.3077 11.3435 30.9986 10.0972 31.034 8.7804C31.0363 8.65107 31.0434 8.52174 31.0529 8.39476C31.1048 7.65639 31.2464 6.9486 31.4753 6.28549C31.5933 5.93982 31.7348 5.60591 31.8977 5.28846C33.1035 2.94404 35.5105 1.38737 38.7646 1.47202C39.3451 1.48613 39.9091 1.56843 40.4495 1.70717C40.6997 1.77066 40.9451 1.84826 41.1834 1.93526C41.5374 2.06459 41.8772 2.22214 42.2028 2.40086C42.4742 2.549 42.7338 2.7136 42.9816 2.89466C43.0996 2.97932 43.2128 3.06867 43.3261 3.15803C43.5007 3.29912 43.6659 3.44726 43.8264 3.60246C44.211 3.97634 44.5532 4.38785 44.8505 4.83463C45.2257 5.39898 45.5278 6.01742 45.7402 6.67583C45.8157 6.91098 45.8818 7.15318 45.9337 7.40008C46.0611 7.96914 46.1177 8.56406 46.1012 9.17544Z" fill="#1464DF"/>
<path d="M46.059 9.80328C44.2608 10.7062 42.3022 11.5998 40.235 12.4557C38.0215 13.3705 35.8647 14.1629 33.8353 14.819C26.5978 17.161 20.9981 17.7818 20.2925 16.0864C19.5728 14.351 24.1885 10.7227 31.2254 7.20255C31.2065 7.28956 31.19 7.37656 31.1735 7.46592C31.1192 7.76926 31.0791 8.07965 31.0578 8.39475C31.0555 8.41591 31.0555 8.43943 31.0531 8.46059C26.7135 10.7674 23.9903 12.9331 24.4174 13.9583C24.8256 14.9412 28.0255 14.6238 32.4359 13.3375C34.581 12.7121 37.0139 11.8561 39.5483 10.8097C41.9293 9.8268 44.1263 8.78745 46.0094 7.77866C50.2523 5.50479 52.9 3.38141 52.4799 2.36793C52.041 1.31212 48.3904 1.75419 43.4821 3.28265C43.4325 3.24032 43.3806 3.19565 43.3287 3.15567C43.2178 3.06396 43.1022 2.97696 42.9842 2.89231C42.8803 2.81706 42.7765 2.74651 42.668 2.67832C42.5925 2.62894 42.5146 2.58191 42.4391 2.53488C50.1178 -0.0564396 56.1707 -0.804208 56.9045 0.964099C57.6243 2.69008 53.0487 6.29724 46.059 9.80328Z" fill="#FFC301"/>
<path d="M62.8233 33.5743H20.1301C16.8901 33.5743 14.2637 30.9571 14.2637 27.7286C14.2637 24.5 16.8901 21.8828 20.1301 21.8828H62.8233V33.5743Z" fill="#1464DF"/>
<path d="M62.8089 23.8627H18.5488V31.5944H62.8089V23.8627Z" fill="white"/>
<path opacity="0.1" d="M62.8089 23.9357H18.5488V28.2083H62.8089V23.9357Z" fill="#1464DF"/>
<path d="M62.9346 45.2329H20.2414C17.0014 45.2329 14.375 42.6157 14.375 39.3871C14.375 36.1586 17.0014 33.5414 20.2414 33.5414H62.9346V45.2329Z" fill="#FFC301"/>
<path opacity="0.15" d="M62.8237 33.5743H20.0574C16.9188 33.5743 14.375 36.1092 14.375 39.2367H62.8214V33.5743H62.8237Z" fill="#07293E"/>
<path d="M25.8891 33.5437H21.2852V45.3105H25.8891V33.5437Z" fill="#07293E"/>
<path d="M59.9262 33.5437H55.3223V45.3105H59.9262V33.5437Z" fill="#07293E"/>
<path d="M51.2631 35.6248H29.2676V42.3053H51.2631V35.6248Z" fill="white"/>
<path d="M46.1012 9.17544C46.0965 9.36826 46.0847 9.55638 46.0635 9.7445C45.9903 10.464 45.8157 11.153 45.5537 11.7973C44.4092 14.6144 41.6011 16.5685 38.3706 16.4838C37.8113 16.4697 37.2685 16.3945 36.7494 16.2651C35.9754 16.0747 35.2486 15.7643 34.5902 15.3551C33.9554 14.9624 33.3843 14.478 32.8959 13.9207C32.4994 13.4692 32.1572 12.9707 31.8764 12.4346C31.3077 11.3435 30.9986 10.0972 31.034 8.7804C31.0363 8.65107 31.0434 8.52174 31.0529 8.39476C31.1048 7.65639 31.2464 6.9486 31.4753 6.28549C31.5933 5.93982 31.7348 5.60591 31.8977 5.28846C33.1035 2.94404 35.5105 1.38737 38.7646 1.47202C39.3451 1.48613 39.9091 1.56843 40.4495 1.70717C40.6997 1.77066 40.9451 1.84826 41.1834 1.93526C41.5374 2.06459 41.8772 2.22214 42.2028 2.40086C42.4742 2.549 42.7338 2.7136 42.9816 2.89466C43.0996 2.97932 43.2128 3.06867 43.3261 3.15803C43.5007 3.29912 43.6659 3.44726 43.8264 3.60246C44.211 3.97634 44.5532 4.38785 44.8505 4.83463C45.2257 5.39898 45.5278 6.01742 45.7402 6.67583C45.8157 6.91098 45.8818 7.15318 45.9337 7.40008C46.0611 7.96914 46.1177 8.56406 46.1012 9.17544Z" fill="#1464DF"/>
<path d="M46.059 9.80328C44.2608 10.7062 42.3022 11.5998 40.235 12.4557C38.0215 13.3705 35.8647 14.1629 33.8353 14.819C26.5978 17.161 20.9981 17.7818 20.2925 16.0864C19.5728 14.351 24.1885 10.7227 31.2254 7.20255C31.2065 7.28956 31.19 7.37656 31.1735 7.46592C31.1192 7.76926 31.0791 8.07965 31.0578 8.39475C31.0555 8.41591 31.0555 8.43943 31.0531 8.46059C26.7135 10.7674 23.9903 12.9331 24.4174 13.9583C24.8256 14.9412 28.0255 14.6238 32.4359 13.3375C34.581 12.7121 37.0139 11.8561 39.5483 10.8097C41.9293 9.8268 44.1263 8.78745 46.0094 7.77866C50.2523 5.50479 52.9 3.38141 52.4799 2.36793C52.041 1.31212 48.3904 1.75419 43.4821 3.28265C43.4325 3.24032 43.3806 3.19565 43.3287 3.15567C43.2178 3.06396 43.1022 2.97696 42.9842 2.89231C42.8803 2.81706 42.7765 2.74651 42.668 2.67832C42.5925 2.62894 42.5146 2.58191 42.4391 2.53488C50.1178 -0.0564396 56.1707 -0.804208 56.9045 0.964099C57.6243 2.69008 53.0487 6.29724 46.059 9.80328Z" fill="#FFC301"/>
<path d="M62.8233 33.5743H20.1301C16.8901 33.5743 14.2637 30.9571 14.2637 27.7286C14.2637 24.5 16.8901 21.8828 20.1301 21.8828H62.8233V33.5743Z" fill="#1464DF"/>
<path d="M62.8089 23.8627H18.5488V31.5944H62.8089V23.8627Z" fill="white"/>
<path opacity="0.1" d="M62.8089 23.9357H18.5488V28.2083H62.8089V23.9357Z" fill="#1464DF"/>
<path d="M62.9346 45.2329H20.2414C17.0014 45.2329 14.375 42.6157 14.375 39.3871C14.375 36.1586 17.0014 33.5414 20.2414 33.5414H62.9346V45.2329Z" fill="#FFC301"/>
<path opacity="0.15" d="M62.8237 33.5743H20.0574C16.9188 33.5743 14.375 36.1092 14.375 39.2367H62.8214V33.5743H62.8237Z" fill="#07293E"/>
<path d="M25.8891 33.5437H21.2852V45.3105H25.8891V33.5437Z" fill="#07293E"/>
<path d="M59.9262 33.5437H55.3223V45.3105H59.9262V33.5437Z" fill="#07293E"/>
<path d="M51.2631 35.6248H29.2676V42.3053H51.2631V35.6248Z" fill="white"/>
<path d="M1.99914 57.5217C1.61685 57.3594 1.31244 57.1243 1.09062 56.8163C0.868803 56.5082 0.753173 56.1461 0.746094 55.7299H2.22096C2.23984 56.0097 2.34131 56.2331 2.52065 56.3953C2.7 56.5599 2.94777 56.6399 3.26398 56.6399C3.58491 56.6399 3.83741 56.5623 4.02147 56.4095C4.20554 56.2566 4.29757 56.0544 4.29757 55.8075C4.29757 55.6052 4.23621 55.4383 4.11115 55.309C3.98608 55.1796 3.83033 55.0762 3.64391 55.0009C3.45749 54.9257 3.20027 54.8434 2.87226 54.7517C2.42626 54.62 2.06521 54.493 1.78676 54.3637C1.5083 54.2367 1.26997 54.0439 1.06938 53.7852C0.868803 53.5265 0.769692 53.1832 0.769692 52.7506C0.769692 52.3461 0.871162 51.9934 1.0741 51.6924C1.27705 51.3914 1.56258 51.161 1.92835 51.0011C2.29647 50.8412 2.71415 50.7612 3.18611 50.7612C3.89405 50.7612 4.46983 50.9329 4.91111 51.2762C5.35239 51.6195 5.59781 52.0969 5.64265 52.7106H4.12766C4.11351 52.4754 4.01439 52.2803 3.82797 52.1274C3.64155 51.9746 3.39377 51.897 3.08464 51.897C2.81562 51.897 2.60088 51.9652 2.44042 52.1039C2.27995 52.2403 2.19972 52.4402 2.19972 52.7012C2.19972 52.8846 2.26108 53.0351 2.38142 53.1574C2.50177 53.2773 2.6528 53.3761 2.8345 53.4513C3.01385 53.5265 3.2687 53.6136 3.59671 53.71C4.04271 53.8416 4.40612 53.971 4.68693 54.1027C4.96775 54.2343 5.21081 54.4295 5.41375 54.6905C5.61669 54.9515 5.71816 55.2949 5.71816 55.7181C5.71816 56.0849 5.62377 56.4236 5.43263 56.7363C5.24148 57.0491 4.96303 57.3007 4.59726 57.4864C4.22914 57.6722 3.79493 57.7663 3.28994 57.7663C2.81326 57.7663 2.38142 57.6863 1.99914 57.5217Z" fill="#07293E"/>
<path d="M14.3907 50.86V57.698H13.0149V53.2514L11.1766 57.698H10.1336L8.28591 53.2514V57.698H6.91016V50.86H8.47233L10.6551 55.9439L12.8379 50.86H14.3907Z" fill="#07293E"/>
<path d="M19.9541 56.3953H17.2215L16.7684 57.6981H15.3242L17.7926 50.8506H19.3948L21.8632 57.6981H20.4072L19.9541 56.3953ZM19.5813 55.2996L18.5878 52.4378L17.5943 55.2996H19.5813Z" fill="#07293E"/>
<path d="M26.3229 57.698L24.8079 55.0338H24.159V57.698H22.7832V50.86H25.3577C25.8887 50.86 26.3418 50.954 26.7146 51.1398C27.0874 51.3256 27.3683 51.5772 27.5547 51.8946C27.7411 52.2121 27.8355 52.5648 27.8355 52.9575C27.8355 53.409 27.7034 53.8158 27.4414 54.1779C27.1795 54.54 26.7901 54.7893 26.271 54.928L27.9134 57.7004H26.3229V57.698ZM24.1613 54.0062H25.3105C25.6834 54.0062 25.9618 53.9169 26.1459 53.7358C26.33 53.5571 26.422 53.3055 26.422 52.9857C26.422 52.673 26.33 52.4284 26.1459 52.2567C25.9618 52.0827 25.6834 51.9981 25.3105 51.9981H24.1613V54.0062Z" fill="#07293E"/>
<path d="M33.758 50.86V51.9675H31.9292V57.698H30.5534V51.9675H28.7246V50.86H33.758Z" fill="#07293E"/>
<path d="M38.1749 57.5217C37.7926 57.3594 37.4882 57.1243 37.2664 56.8163C37.0446 56.5082 36.929 56.1461 36.9219 55.7299H38.3967C38.4156 56.0097 38.5171 56.2331 38.6964 56.3953C38.8758 56.5599 39.1236 56.6399 39.4398 56.6399C39.7607 56.6399 40.0132 56.5623 40.1973 56.4095C40.3813 56.2566 40.4734 56.0544 40.4734 55.8075C40.4734 55.6052 40.412 55.4383 40.2869 55.309C40.1619 55.1796 40.0061 55.0762 39.8197 55.0009C39.6333 54.9257 39.376 54.8434 39.048 54.7517C38.602 54.62 38.241 54.493 37.9625 54.3637C37.6841 54.2367 37.4457 54.0439 37.2452 53.7852C37.0446 53.5265 36.9455 53.1832 36.9455 52.7506C36.9455 52.3461 37.0469 51.9934 37.2499 51.6924C37.4528 51.3914 37.7384 51.161 38.1041 51.0011C38.4723 50.8412 38.8899 50.7612 39.3619 50.7612C40.0698 50.7612 40.6456 50.9329 41.0869 51.2762C41.5282 51.6195 41.7736 52.0969 41.8184 52.7106H40.3034C40.2893 52.4754 40.1902 52.2803 40.0038 52.1274C39.8173 51.9746 39.5696 51.897 39.2604 51.897C38.9914 51.897 38.7767 51.9652 38.6162 52.1039C38.4557 52.2403 38.3755 52.4402 38.3755 52.7012C38.3755 52.8846 38.4369 53.0351 38.5572 53.1574C38.6776 53.2773 38.8286 53.3761 39.0103 53.4513C39.1896 53.5265 39.4445 53.6136 39.7725 53.71C40.2185 53.8416 40.5819 53.971 40.8627 54.1027C41.1435 54.2343 41.3866 54.4295 41.5895 54.6905C41.7925 54.9515 41.8939 55.2949 41.8939 55.7181C41.8939 56.0849 41.7995 56.4236 41.6084 56.7363C41.4173 57.0491 41.1388 57.3007 40.773 57.4864C40.4049 57.6722 39.9707 57.7663 39.4657 57.7663C38.989 57.7663 38.5596 57.6863 38.1749 57.5217Z" fill="#07293E"/>
<path d="M43.2078 52.4636C43.5122 51.9322 43.9275 51.516 44.4561 51.2197C44.9847 50.9234 45.5747 50.7729 46.2307 50.7729C46.9976 50.7729 47.6702 50.9681 48.2459 51.3608C48.8217 51.7535 49.2252 52.2943 49.4541 52.988H47.8707C47.7126 52.6612 47.4932 52.4166 47.2076 52.2544C46.9221 52.0921 46.5941 52.0098 46.2189 52.0098C45.8201 52.0098 45.4638 52.1039 45.1523 52.2896C44.8408 52.4754 44.5977 52.7388 44.4254 53.0774C44.2508 53.416 44.1659 53.8157 44.1659 54.2719C44.1659 54.7234 44.2532 55.1185 44.4254 55.4618C44.6001 55.8051 44.8408 56.0684 45.1523 56.2566C45.4638 56.4423 45.8201 56.5364 46.2189 56.5364C46.5917 56.5364 46.9221 56.4541 47.2076 56.2871C47.4932 56.1202 47.715 55.8733 47.8707 55.5464H49.4541C49.2252 56.2448 48.8241 56.788 48.2507 57.1783C47.6772 57.5663 47.0047 57.7615 46.2307 57.7615C45.5747 57.7615 44.9847 57.6134 44.4561 57.3147C43.9275 57.0161 43.5122 56.6046 43.2078 56.0755C42.9034 55.5464 42.75 54.9468 42.75 54.2719C42.7524 53.5971 42.9034 52.9951 43.2078 52.4636Z" fill="#07293E"/>
<path d="M56.3285 50.86V57.698H54.9528V54.7893H52.0125V57.698H50.6367V50.86H52.0125V53.6723H54.9528V50.86H56.3285Z" fill="#07293E"/>
<path d="M59.0986 57.3171C58.5606 57.0161 58.1358 56.5999 57.8196 56.0685C57.5058 55.5371 57.3477 54.9327 57.3477 54.2602C57.3477 53.5947 57.5058 52.9951 57.8196 52.4637C58.1335 51.9322 58.5606 51.516 59.0986 51.215C59.6366 50.9141 60.2266 50.7636 60.8685 50.7636C61.5174 50.7636 62.1097 50.9141 62.643 51.215C63.1763 51.516 63.5987 51.9322 63.9102 52.4637C64.2217 52.9951 64.3775 53.5947 64.3775 54.2602C64.3775 54.9327 64.2217 55.5347 63.9102 56.0685C63.5987 56.5999 63.174 57.0185 62.6383 57.3171C62.1003 57.6181 61.5103 57.7686 60.8685 57.7686C60.2266 57.7686 59.6366 57.6181 59.0986 57.3171ZM61.961 56.2637C62.2749 56.0779 62.5227 55.8122 62.6973 55.4665C62.8743 55.1208 62.9616 54.7187 62.9616 54.2626C62.9616 53.8064 62.8719 53.4043 62.6973 53.0633C62.5203 52.72 62.2749 52.4566 61.961 52.2756C61.6472 52.0945 61.2838 52.0004 60.8708 52.0004C60.4579 52.0004 60.0921 52.0921 59.7759 52.2756C59.4573 52.459 59.2095 52.7223 59.0325 53.0633C58.8556 53.4043 58.7682 53.8064 58.7682 54.2626C58.7682 54.7187 58.8579 55.1208 59.0325 55.4665C59.2072 55.8122 59.4573 56.0779 59.7759 56.2637C60.0944 56.4494 60.4579 56.5435 60.8708 56.5435C61.2838 56.5435 61.6448 56.4494 61.961 56.2637Z" fill="#07293E"/>
<path d="M66.8174 57.3171C66.2793 57.0161 65.8546 56.5999 65.5384 56.0685C65.2245 55.537 65.0664 54.9327 65.0664 54.2602C65.0664 53.5947 65.2245 52.9951 65.5384 52.4636C65.8522 51.9322 66.2793 51.516 66.8174 51.215C67.3554 50.914 67.9453 50.7635 68.5872 50.7635C69.2361 50.7635 69.8285 50.914 70.3618 51.215C70.8951 51.516 71.3175 51.9322 71.629 52.4636C71.9405 52.9951 72.0962 53.5947 72.0962 54.2602C72.0962 54.9327 71.9405 55.5347 71.629 56.0685C71.3175 56.5999 70.8927 57.0184 70.357 57.3171C69.819 57.6181 69.2291 57.7686 68.5872 57.7686C67.9453 57.7686 67.353 57.6181 66.8174 57.3171ZM69.6774 56.2636C69.9913 56.0779 70.2391 55.8121 70.4137 55.4665C70.5907 55.1208 70.678 54.7187 70.678 54.2625C70.678 53.8063 70.5883 53.4042 70.4137 53.0633C70.2367 52.72 69.9913 52.4566 69.6774 52.2755C69.3636 52.0945 69.0002 52.0004 68.5872 52.0004C68.1742 52.0004 67.8085 52.0921 67.4923 52.2755C67.1737 52.4589 66.9259 52.7223 66.7489 53.0633C66.572 53.4042 66.4846 53.8063 66.4846 54.2625C66.4846 54.7187 66.5743 55.1208 66.7489 55.4665C66.9236 55.8121 67.1737 56.0779 67.4923 56.2636C67.8108 56.4494 68.1742 56.5435 68.5872 56.5435C69.0002 56.5435 69.3636 56.4494 69.6774 56.2636Z" fill="#07293E"/>
<path d="M74.4949 56.6117H76.7556V57.698H73.1191V50.86H74.4949V56.6117Z" fill="#07293E"/>
<path d="M1.1073 63.9082C0.920872 63.8471 0.774566 63.7648 0.666016 63.666L0.807603 63.3698C0.909073 63.4615 1.03886 63.5344 1.19933 63.5908C1.35743 63.6472 1.52262 63.6754 1.69016 63.6754C1.91198 63.6754 2.07717 63.6378 2.18572 63.5626C2.29427 63.4873 2.34854 63.3886 2.34854 63.2639C2.34854 63.1722 2.31786 63.0993 2.25887 63.0429C2.19988 62.9865 2.12436 62.9418 2.03705 62.9112C1.94974 62.8806 1.82467 62.8477 1.6642 62.8078C1.46362 62.7584 1.3008 62.7113 1.17809 62.6643C1.05538 62.6173 0.94919 62.542 0.861878 62.4433C0.774566 62.3422 0.72973 62.2081 0.72973 62.0388C0.72973 61.8977 0.767486 61.7684 0.842999 61.6555C0.918513 61.5427 1.03178 61.451 1.18517 61.3828C1.33855 61.3146 1.52734 61.2793 1.75388 61.2793C1.91198 61.2793 2.06537 61.3005 2.21875 61.3404C2.37214 61.3804 2.50193 61.4392 2.61048 61.5144L2.48541 61.8178C2.3745 61.7472 2.25415 61.6932 2.12672 61.6555C1.99929 61.6179 1.87423 61.6014 1.75388 61.6014C1.53678 61.6014 1.37631 61.6414 1.26776 61.719C1.15921 61.7966 1.10494 61.9001 1.10494 62.0224C1.10494 62.1141 1.13561 62.187 1.19697 62.2457C1.25832 62.3022 1.33383 62.3469 1.42351 62.3798C1.51318 62.4127 1.63589 62.4456 1.79163 62.4809C1.99221 62.5279 2.15268 62.5773 2.27539 62.6243C2.3981 62.6737 2.50193 62.7466 2.58924 62.8454C2.67655 62.9441 2.72139 63.0782 2.72139 63.2451C2.72139 63.3839 2.68363 63.5108 2.60812 63.6261C2.5326 63.7413 2.41698 63.833 2.26123 63.8988C2.10548 63.967 1.9167 64 1.69016 64C1.48722 64 1.29372 63.9694 1.1073 63.9082Z" fill="#1464DF"/>
<path d="M4.98982 61.6415H4.07422V61.31H6.28062V61.6415H5.36502V63.9695H4.98746V61.6415H4.98982Z" fill="#1464DF"/>
<path d="M8.14108 63.6966C7.94286 63.4944 7.84375 63.2028 7.84375 62.8219V61.3099H8.22604V62.8078C8.22604 63.3768 8.47617 63.6613 8.97645 63.6613C9.2195 63.6613 9.40829 63.5908 9.53572 63.4497C9.6655 63.3086 9.72922 63.0946 9.72922 62.8054V61.3075H10.0997V62.8195C10.0997 63.2028 10.0006 63.4944 9.80237 63.6943C9.60415 63.8965 9.32805 63.9952 8.97173 63.9952C8.61776 63.9999 8.3393 63.8988 8.14108 63.6966Z" fill="#1464DF"/>
<path d="M12.1035 61.31H13.2291C13.5123 61.31 13.7624 61.3664 13.9795 61.4769C14.199 61.5874 14.3689 61.745 14.4893 61.9472C14.6096 62.1494 14.671 62.3799 14.671 62.6409C14.671 62.9019 14.6096 63.1323 14.4893 63.3346C14.3689 63.5368 14.199 63.692 13.9795 63.8049C13.7601 63.9154 13.5099 63.9718 13.2291 63.9718H12.1035V61.31ZM13.2055 63.6403C13.4226 63.6403 13.6114 63.5979 13.7766 63.5156C13.9394 63.431 14.0669 63.3158 14.1565 63.1653C14.2462 63.0148 14.291 62.8408 14.291 62.6432C14.291 62.4457 14.2462 62.2717 14.1565 62.1212C14.0669 61.9707 13.9418 61.8531 13.7766 61.7708C13.6138 61.6862 13.4226 61.6462 13.2055 61.6462H12.4858V63.645H13.2055V63.6403Z" fill="#1464DF"/>
<path d="M18.41 63.6402V63.9718H16.4727V61.3123H18.3558V61.6438H16.8549V62.4598H18.1929V62.7819H16.8549V63.6402H18.41Z" fill="#1464DF"/>
<path d="M22.5422 61.31V63.9695H22.2307L20.6284 61.9872V63.9695H20.2461V61.31H20.5576L22.1599 63.2922V61.31H22.5422Z" fill="#1464DF"/>
<path d="M25.0914 61.6415H24.1758V61.31H26.3822V61.6415H25.4666V63.9695H25.089V61.6415H25.0914Z" fill="#1464DF"/>
<path d="M28.1815 63.9083C27.9951 63.8471 27.8488 63.7648 27.7402 63.6661L27.8818 63.3698C27.9833 63.4615 28.1131 63.5344 28.2735 63.5908C28.4316 63.6472 28.5968 63.6755 28.7644 63.6755C28.9862 63.6755 29.1514 63.6378 29.2599 63.5626C29.3685 63.4873 29.4228 63.3886 29.4228 63.264C29.4228 63.1722 29.3921 63.0994 29.3331 63.0429C29.2741 62.9865 29.1986 62.9418 29.1113 62.9112C29.024 62.8807 28.8989 62.8477 28.7384 62.8078C28.5378 62.7584 28.375 62.7114 28.2523 62.6643C28.1296 62.6173 28.0234 62.542 27.9361 62.4433C27.8488 62.3422 27.8039 62.2081 27.8039 62.0388C27.8039 61.8977 27.8417 61.7684 27.9172 61.6555C27.9927 61.5427 28.106 61.451 28.2594 61.3828C28.4128 61.3146 28.6016 61.2793 28.8281 61.2793C28.9862 61.2793 29.1396 61.3005 29.293 61.3404C29.4464 61.3804 29.5761 61.4392 29.6847 61.5145L29.5596 61.8178C29.4487 61.7473 29.3284 61.6932 29.2009 61.6555C29.0735 61.6179 28.9484 61.6015 28.8281 61.6015C28.611 61.6015 28.4505 61.6414 28.342 61.719C28.2334 61.7966 28.1792 61.9001 28.1792 62.0224C28.1792 62.1141 28.2098 62.187 28.2712 62.2458C28.3325 62.3022 28.4081 62.3469 28.4977 62.3798C28.5874 62.4127 28.7101 62.4456 28.8659 62.4809C29.0664 62.5279 29.2269 62.5773 29.3496 62.6244C29.4723 62.6737 29.5761 62.7466 29.6635 62.8454C29.7508 62.9442 29.7956 63.0782 29.7956 63.2451C29.7956 63.3839 29.7578 63.5109 29.6823 63.6261C29.6068 63.7413 29.4912 63.833 29.3354 63.8988C29.1797 63.967 28.9909 64 28.7644 64C28.5638 64 28.3703 63.9694 28.1815 63.9083Z" fill="#1464DF"/>
<path d="M34.0135 63.9083C33.8271 63.8471 33.6808 63.7648 33.5723 63.6661L33.7139 63.3698C33.8153 63.4615 33.9451 63.5344 34.1056 63.5908C34.2637 63.6472 34.4289 63.6755 34.5964 63.6755C34.8182 63.6755 34.9834 63.6378 35.092 63.5626C35.2005 63.4873 35.2548 63.3886 35.2548 63.264C35.2548 63.1722 35.2241 63.0994 35.1651 63.0429C35.1061 62.9865 35.0306 62.9418 34.9433 62.9112C34.856 62.8807 34.7309 62.8477 34.5705 62.8078C34.3699 62.7584 34.207 62.7114 34.0843 62.6643C33.9616 62.6173 33.8554 62.542 33.7681 62.4433C33.6808 62.3422 33.636 62.2081 33.636 62.0388C33.636 61.8977 33.6737 61.7684 33.7492 61.6555C33.8248 61.5427 33.938 61.451 34.0914 61.3828C34.2448 61.3146 34.4336 61.2793 34.6601 61.2793C34.8182 61.2793 34.9716 61.3005 35.125 61.3404C35.2784 61.3804 35.4082 61.4392 35.5167 61.5145L35.3917 61.8178C35.2808 61.7473 35.1604 61.6932 35.033 61.6555C34.9055 61.6179 34.7805 61.6015 34.6601 61.6015C34.443 61.6015 34.2826 61.6414 34.174 61.719C34.0655 61.7966 34.0112 61.9001 34.0112 62.0224C34.0112 62.1141 34.0419 62.187 34.1032 62.2458C34.1646 62.3022 34.2401 62.3469 34.3298 62.3798C34.4194 62.4127 34.5421 62.4456 34.6979 62.4809C34.8985 62.5279 35.0589 62.5773 35.1816 62.6244C35.3043 62.6737 35.4082 62.7466 35.4955 62.8454C35.5828 62.9442 35.6276 63.0782 35.6276 63.2451C35.6276 63.3839 35.5899 63.5109 35.5144 63.6261C35.4389 63.7413 35.3232 63.833 35.1675 63.8988C35.0117 63.967 34.823 64 34.5964 64C34.3958 64 34.2 63.9694 34.0135 63.9083Z" fill="#1464DF"/>
<path d="M37.898 61.6415H36.9824V61.31H39.1888V61.6415H38.2732V63.9695H37.8957V61.6415H37.898Z" fill="#1464DF"/>
<path d="M41.0512 63.6967C40.853 63.4944 40.7539 63.2028 40.7539 62.8219V61.3099H41.1362V62.8078C41.1362 63.3769 41.3863 63.6614 41.8866 63.6614C42.1297 63.6614 42.3184 63.5908 42.4459 63.4497C42.5757 63.3087 42.6394 63.0947 42.6394 62.8054V61.3076H43.0099V62.8196C43.0099 63.2028 42.9107 63.4944 42.7125 63.6943C42.5143 63.8965 42.2382 63.9953 41.8819 63.9953C41.5256 64 41.2495 63.8989 41.0512 63.6967Z" fill="#1464DF"/>
<path d="M45.0117 61.31H46.1373C46.4205 61.31 46.6706 61.3664 46.8877 61.4769C47.1072 61.5874 47.2771 61.745 47.3975 61.9472C47.5178 62.1494 47.5792 62.3799 47.5792 62.6409C47.5792 62.9019 47.5178 63.1323 47.3975 63.3346C47.2771 63.5368 47.1072 63.692 46.8877 63.8049C46.6683 63.9177 46.4182 63.9718 46.1373 63.9718H45.0117V61.31ZM46.1137 63.6403C46.3308 63.6403 46.5196 63.5979 46.6848 63.5156C46.8476 63.431 46.9751 63.3158 47.0647 63.1653C47.1544 63.0148 47.1992 62.8408 47.1992 62.6432C47.1992 62.4457 47.1544 62.2717 47.0647 62.1212C46.9751 61.9707 46.85 61.8531 46.6848 61.7708C46.5196 61.6862 46.3308 61.6462 46.1137 61.6462H45.394V63.645H46.1137V63.6403Z" fill="#1464DF"/>
<path d="M50.2867 63.05V63.9695H49.9092V63.043L48.8496 61.31H49.2579L50.1121 62.7114L50.9711 61.31H51.3486L50.2867 63.05Z" fill="#1464DF"/>
<path d="M57.0548 61.5568C57.253 61.7214 57.3522 61.9471 57.3522 62.2363C57.3522 62.5256 57.253 62.7513 57.0548 62.9159C56.8566 63.0805 56.5852 63.1628 56.2383 63.1628H55.5776V63.967H55.1953V61.3075H56.236C56.5852 61.3099 56.8566 61.3922 57.0548 61.5568ZM56.7811 62.6808C56.9085 62.5773 56.9722 62.4315 56.9722 62.2387C56.9722 62.0459 56.9085 61.8977 56.7811 61.7966C56.6537 61.6931 56.4696 61.6438 56.2289 61.6438H55.58V62.836H56.2289C56.4696 62.8336 56.6537 62.7819 56.7811 62.6808Z" fill="#1464DF"/>
<path d="M59.6489 63.8236C59.4318 63.7061 59.2642 63.5438 59.1391 63.3345C59.0164 63.1276 58.9551 62.8948 58.9551 62.6385C58.9551 62.3822 59.0164 62.1517 59.1391 61.9425C59.2618 61.7355 59.4318 61.5709 59.6489 61.4534C59.866 61.3358 60.1067 61.277 60.378 61.277C60.6447 61.277 60.8854 61.3358 61.1025 61.4534C61.3196 61.5709 61.4871 61.7332 61.6098 61.9401C61.7325 62.147 61.7939 62.3798 61.7939 62.6361C61.7939 62.8948 61.7325 63.1276 61.6098 63.3345C61.4871 63.5415 61.3196 63.7037 61.1025 63.8213C60.8854 63.9389 60.6447 63.9976 60.378 63.9976C60.1067 64 59.8636 63.9412 59.6489 63.8236ZM60.9043 63.5297C61.06 63.4404 61.1827 63.3181 61.2747 63.1629C61.3644 63.0077 61.4093 62.8337 61.4093 62.6409C61.4093 62.448 61.3644 62.274 61.2747 62.1188C61.1851 61.9636 61.0624 61.8413 60.9043 61.752C60.7485 61.6626 60.5715 61.618 60.3757 61.618C60.1798 61.618 60.0028 61.6626 59.8447 61.752C59.6866 61.8413 59.5615 61.9636 59.4719 62.1188C59.3822 62.274 59.3374 62.448 59.3374 62.6409C59.3374 62.8337 59.3822 63.0077 59.4719 63.1629C59.5615 63.3181 59.6866 63.4404 59.8447 63.5297C60.0028 63.6191 60.1798 63.6637 60.3757 63.6637C60.5715 63.6614 60.7485 63.6191 60.9043 63.5297Z" fill="#1464DF"/>
<path d="M65.3782 63.9694L64.8024 63.1535C64.7316 63.1582 64.6749 63.1605 64.6348 63.1605H63.9741V63.9694H63.5918V61.3099H64.6325C64.977 61.3099 65.2507 61.3922 65.4489 61.5568C65.6472 61.7214 65.7463 61.9472 65.7463 62.2364C65.7463 62.441 65.6944 62.6173 65.5929 62.7608C65.4914 62.9042 65.3451 63.01 65.1587 63.0759L65.7911 63.9694H65.3782ZM65.1752 62.6832C65.3026 62.5797 65.3664 62.4316 65.3664 62.2387C65.3664 62.0459 65.3026 61.8978 65.1752 61.7967C65.0478 61.6932 64.8637 61.6438 64.623 61.6438H63.9741V62.8407H64.623C64.8637 62.8384 65.0478 62.7866 65.1752 62.6832Z" fill="#1464DF"/>
<path d="M68.0777 61.6415H67.1621V61.31H69.3685V61.6415H68.4529V63.9695H68.0753V61.6415H68.0777Z" fill="#1464DF"/>
<path d="M72.5733 63.3063H71.155L70.8624 63.9718H70.4707L71.6789 61.3123H72.0565L73.2694 63.9718H72.8682L72.5733 63.3063ZM72.4388 63.0006L71.863 61.6979L71.2872 63.0006H72.4388Z" fill="#1464DF"/>
<path d="M74.8828 61.31H75.2651V63.6379H76.7093V63.9695H74.8828V61.31Z" fill="#1464DF"/>
</g>
<defs>
<clipPath id="clip0_1348_14769">
<rect width="76.0889" height="64" fill="white" transform="translate(0.666016)"/>
</clipPath>
</defs>
</svg>
