<svg width="24" height="25" viewBox="0 0 24 25" fill="none" xmlns="http://www.w3.org/2000/svg">
<path d="M6 9.06036V2.06036H18V9.06036" stroke="white" stroke-width="2" stroke-linecap="round" stroke-linejoin="round"/>
<path d="M6 18.0604H4C3.46957 18.0604 2.96086 17.8496 2.58579 17.4746C2.21071 17.0995 2 16.5908 2 16.0604V11.0604C2 10.5299 2.21071 10.0212 2.58579 9.64615C2.96086 9.27108 3.46957 9.06036 4 9.06036H20C20.5304 9.06036 21.0391 9.27108 21.4142 9.64615C21.7893 10.0212 22 10.5299 22 11.0604V16.0604C22 16.5908 21.7893 17.0995 21.4142 17.4746C21.0391 17.8496 20.5304 18.0604 20 18.0604H18" stroke="white" stroke-width="2" stroke-linecap="round" stroke-linejoin="round"/>
<path d="M18 14.0604H6V22.0604H18V14.0604Z" stroke="white" stroke-width="2" stroke-linecap="round" stroke-linejoin="round"/>
</svg>
