<svg width="24" height="24" viewBox="0 0 24 24" fill="none" xmlns="http://www.w3.org/2000/svg">
<g clip-path="url(#clip0_136_2613)">
<path d="M19.4 15C19.2669 15.3016 19.2272 15.6362 19.286 15.9606C19.3448 16.285 19.4995 16.5843 19.73 16.82L19.79 16.88C19.976 17.0658 20.1235 17.2863 20.2241 17.5291C20.3248 17.7719 20.3766 18.0322 20.3766 18.295C20.3766 18.5578 20.3248 18.8181 20.2241 19.0609C20.1235 19.3037 19.976 19.5243 19.79 19.71C19.6043 19.896 19.3837 20.0435 19.1409 20.1441C18.8981 20.2448 18.6378 20.2966 18.375 20.2966C18.1122 20.2966 17.8519 20.2448 17.6091 20.1441C17.3663 20.0435 17.1457 19.896 16.96 19.71L16.9 19.65C16.6643 19.4195 16.365 19.2648 16.0406 19.206C15.7162 19.1472 15.3816 19.1869 15.08 19.32C14.7842 19.4468 14.532 19.6573 14.3543 19.9256C14.1766 20.1938 14.0813 20.5082 14.08 20.83V21C14.08 21.5304 13.8693 22.0392 13.4942 22.4142C13.1191 22.7893 12.6104 23 12.08 23C11.5496 23 11.0409 22.7893 10.6658 22.4142C10.2907 22.0392 10.08 21.5304 10.08 21V20.91C10.0723 20.579 9.96512 20.258 9.77251 19.9887C9.5799 19.7194 9.31074 19.5143 9 19.4C8.69838 19.2669 8.36381 19.2272 8.03941 19.286C7.71502 19.3448 7.41568 19.4995 7.18 19.73L7.12 19.79C6.93425 19.976 6.71368 20.1235 6.47088 20.2241C6.22808 20.3248 5.96783 20.3766 5.705 20.3766C5.44217 20.3766 5.18192 20.3248 4.93912 20.2241C4.69632 20.1235 4.47575 19.976 4.29 19.79C4.10405 19.6043 3.95653 19.3837 3.85588 19.1409C3.75523 18.8981 3.70343 18.6378 3.70343 18.375C3.70343 18.1122 3.75523 17.8519 3.85588 17.6091C3.95653 17.3663 4.10405 17.1458 4.29 16.96L4.35 16.9C4.58054 16.6643 4.73519 16.365 4.794 16.0406C4.85282 15.7162 4.81312 15.3816 4.68 15.08C4.55324 14.7842 4.34276 14.532 4.07447 14.3543C3.80618 14.1766 3.49179 14.0813 3.17 14.08H3C2.46957 14.08 1.96086 13.8693 1.58579 13.4942C1.21071 13.1192 1 12.6104 1 12.08C1 11.5496 1.21071 11.0409 1.58579 10.6658C1.96086 10.2907 2.46957 10.08 3 10.08H3.09C3.42099 10.0723 3.742 9.96513 4.0113 9.77253C4.28059 9.57992 4.48572 9.31075 4.6 9.00002C4.73312 8.6984 4.77282 8.36382 4.714 8.03943C4.65519 7.71503 4.50054 7.41569 4.27 7.18002L4.21 7.12002C4.02405 6.93427 3.87653 6.71369 3.77588 6.4709C3.67523 6.2281 3.62343 5.96785 3.62343 5.70502C3.62343 5.44218 3.67523 5.18193 3.77588 4.93913C3.87653 4.69634 4.02405 4.47576 4.21 4.29002C4.39575 4.10406 4.61632 3.95654 4.85912 3.8559C5.10192 3.75525 5.36217 3.70344 5.625 3.70344C5.88783 3.70344 6.14808 3.75525 6.39088 3.8559C6.63368 3.95654 6.85425 4.10406 7.04 4.29002L7.1 4.35002C7.33568 4.58055 7.63502 4.7352 7.95941 4.79402C8.28381 4.85284 8.61838 4.81313 8.92 4.68002H9C9.29577 4.55325 9.54802 4.34277 9.72569 4.07448C9.90337 3.80619 9.99872 3.4918 10 3.17002V3.00002C10 2.46958 10.2107 1.96087 10.5858 1.5858C10.9609 1.21073 11.4696 1.00002 12 1.00002C12.5304 1.00002 13.0391 1.21073 13.4142 1.5858C13.7893 1.96087 14 2.46958 14 3.00002V3.09002C14.0013 3.4118 14.0966 3.72619 14.2743 3.99448C14.452 4.26277 14.7042 4.47325 15 4.60002C15.3016 4.73313 15.6362 4.77284 15.9606 4.71402C16.285 4.6552 16.5843 4.50055 16.82 4.27002L16.88 4.21002C17.0657 4.02406 17.2863 3.87654 17.5291 3.7759C17.7719 3.67525 18.0322 3.62344 18.295 3.62344C18.5578 3.62344 18.8181 3.67525 19.0609 3.7759C19.3037 3.87654 19.5243 4.02406 19.71 4.21002C19.896 4.39576 20.0435 4.61634 20.1441 4.85913C20.2448 5.10193 20.2966 5.36218 20.2966 5.62502C20.2966 5.88785 20.2448 6.1481 20.1441 6.3909C20.0435 6.63369 19.896 6.85427 19.71 7.04002L19.65 7.10002C19.4195 7.33569 19.2648 7.63503 19.206 7.95943C19.1472 8.28382 19.1869 8.6184 19.32 8.92002V9.00002C19.4468 9.29578 19.6572 9.54803 19.9255 9.72571C20.1938 9.90338 20.5082 9.99873 20.83 10H21C21.5304 10 22.0391 10.2107 22.4142 10.5858C22.7893 10.9609 23 11.4696 23 12C23 12.5304 22.7893 13.0392 22.4142 13.4142C22.0391 13.7893 21.5304 14 21 14H20.91C20.5882 14.0013 20.2738 14.0966 20.0055 14.2743C19.7372 14.452 19.5268 14.7042 19.4 15Z" fill="#64748B" stroke="#64748B" stroke-width="2" stroke-linecap="round" stroke-linejoin="round"/>
<path d="M12 15C13.6569 15 15 13.6569 15 12C15 10.3432 13.6569 9.00002 12 9.00002C10.3431 9.00002 9 10.3432 9 12C9 13.6569 10.3431 15 12 15Z" stroke="#F1F5F9" stroke-width="2" stroke-linecap="round" stroke-linejoin="round"/>
</g>
<defs>
<clipPath id="clip0_136_2613">
<rect width="24" height="24" fill="white"/>
</clipPath>
</defs>
</svg>
