<svg width="20" height="21" viewBox="0 0 20 21" fill="none" xmlns="http://www.w3.org/2000/svg">
<path d="M9.99295 7.86524C11.1834 7.86524 12.1358 8.84085 12.1358 10.0604C12.1358 11.2799 11.1834 12.2555 9.99295 12.2555C8.80248 12.2555 7.8501 11.2799 7.8501 10.0604C7.8501 8.84085 8.80248 7.86524 9.99295 7.86524ZM7.8501 2.25549C7.8501 3.475 8.80248 4.45061 9.99295 4.45061C11.1834 4.45061 12.1358 3.475 12.1358 2.25549C12.1358 1.03597 11.1834 0.0603638 9.99295 0.0603638C8.80248 0.0603638 7.8501 1.03597 7.8501 2.25549ZM7.8501 17.8652C7.8501 19.0848 8.80248 20.0604 9.99295 20.0604C11.1834 20.0604 12.1358 19.0848 12.1358 17.8652C12.1358 16.6457 11.1834 15.6701 9.99295 15.6701C8.80248 15.6701 7.8501 16.6457 7.8501 17.8652Z" fill="#8B83BA"/>
</svg>
