<svg xmlns="http://www.w3.org/2000/svg" width="47" height="48" viewBox="0 0 47 48" fill="none">
  <path fill-rule="evenodd" clip-rule="evenodd" d="M23.5002 20.1915C20.282 20.1915 17.6732 22.8003 17.6732 26.0184C17.6732 29.2365 20.282 31.8454 23.5002 31.8454C26.7183 31.8454 29.3271 29.2365 29.3271 26.0184C29.3271 22.8003 26.7183 20.1915 23.5002 20.1915ZM14.7598 26.0184C14.7598 21.1912 18.673 17.278 23.5002 17.278C28.3273 17.278 32.2405 21.1912 32.2405 26.0184C32.2405 30.8456 28.3273 34.7588 23.5002 34.7588C18.673 34.7588 14.7598 30.8456 14.7598 26.0184Z" fill="#F7B84B"/>
  <path fill-rule="evenodd" clip-rule="evenodd" d="M40.119 24.1007C38.8045 23.4435 37.3546 23.1025 35.8849 23.105C35.0804 23.1063 34.4271 22.4552 34.4258 21.6507C34.4244 20.8461 35.0755 20.1929 35.8801 20.1915C37.8037 20.1883 39.7014 20.6346 41.4219 21.4949C43.1425 22.3551 44.6382 23.6055 45.7897 25.1463C46.2714 25.7908 46.1394 26.7036 45.495 27.1853C44.8506 27.6669 43.9377 27.5349 43.4561 26.8905C42.5762 25.7133 41.4335 24.758 40.119 24.1007Z" fill="#F7B84B"/>
  <path fill-rule="evenodd" clip-rule="evenodd" d="M11.1157 23.105C9.64601 23.1025 8.19612 23.4435 6.88162 24.1007C5.56712 24.758 4.42439 25.7133 3.54456 26.8905C3.06292 27.5349 2.15006 27.6669 1.50563 27.1853C0.861198 26.7036 0.729231 25.7908 1.21087 25.1463C2.36246 23.6055 3.85816 22.3551 5.57868 21.4949C7.2992 20.6346 9.19694 20.1883 11.1205 20.1915C11.9251 20.1929 12.5762 20.8461 12.5748 21.6507C12.5735 22.4552 11.9202 23.1063 11.1157 23.105Z" fill="#F7B84B"/>
  <path fill-rule="evenodd" clip-rule="evenodd" d="M23.4997 34.7635C21.5863 34.7635 19.7113 35.3009 18.0884 36.3145C16.4655 37.3281 15.1598 38.7771 14.3203 40.4966C13.9673 41.2195 13.095 41.5194 12.3721 41.1664C11.6491 40.8134 11.3492 39.9411 11.7022 39.2182C12.7813 37.0084 14.4593 35.1461 16.545 33.8434C18.6308 32.5407 21.0406 31.85 23.4997 31.85C25.9589 31.85 28.3686 32.5407 30.4544 33.8434C32.5402 35.1461 34.2182 37.0084 35.2972 39.2182C35.6502 39.9411 35.3503 40.8134 34.6274 41.1664C33.9044 41.5194 33.0322 41.2195 32.6792 40.4966C31.8396 38.7771 30.534 37.3281 28.9111 36.3145C27.2881 35.3009 25.4132 34.7635 23.4997 34.7635Z" fill="#F7B84B"/>
  <path fill-rule="evenodd" clip-rule="evenodd" d="M12.1976 11.588C11.3942 11.382 10.5487 11.409 9.75991 11.6656C8.97117 11.9223 8.27175 12.3982 7.7434 13.0376C7.21504 13.677 6.87957 14.4535 6.77617 15.2765C6.67277 16.0995 6.80572 16.9349 7.15948 17.6852C7.51324 18.4354 8.0732 19.0695 8.77394 19.5133C9.47467 19.9571 10.2872 20.1923 11.1167 20.1915C11.9212 20.1907 12.5741 20.8422 12.5749 21.6468C12.5757 22.4513 11.9242 23.1042 11.1197 23.105C9.73723 23.1064 8.38294 22.7143 7.21505 21.9746C6.04715 21.2349 5.11388 20.1782 4.52428 18.9278C3.93468 17.6774 3.7131 16.285 3.88543 14.9133C4.05777 13.5417 4.61689 12.2474 5.49748 11.1817C6.37807 10.116 7.54376 9.32297 8.85834 8.89518C10.1729 8.46738 11.5821 8.42253 12.9212 8.76587C14.2603 9.1092 15.4741 9.82655 16.4207 10.8341C17.3672 11.8416 18.0075 13.0977 18.2667 14.4556C18.4176 15.2459 17.8993 16.0088 17.109 16.1597C16.3187 16.3105 15.5558 15.7922 15.405 15.0019C15.2494 14.1872 14.8653 13.4335 14.2973 12.829C13.7294 12.2245 13.0011 11.794 12.1976 11.588Z" fill="#F7B84B"/>
  <path fill-rule="evenodd" clip-rule="evenodd" d="M37.2405 11.6656C36.4517 11.409 35.6062 11.382 34.8027 11.588C33.9993 11.794 33.271 12.2245 32.7031 12.829C32.1351 13.4335 31.7509 14.1872 31.5954 15.0019C31.4446 15.7922 30.6816 16.3105 29.8914 16.1597C29.1011 16.0088 28.5828 15.2459 28.7336 14.4556C28.9928 13.0977 29.6331 11.8416 30.5797 10.8341C31.5263 9.82655 32.74 9.1092 34.0792 8.76587C35.4183 8.42253 36.8275 8.46738 38.142 8.89518C39.4566 9.32297 40.6223 10.116 41.5029 11.1817C42.3835 12.2474 42.9426 13.5417 43.1149 14.9133C43.2873 16.285 43.0657 17.6774 42.4761 18.9278C41.8865 20.1782 40.9532 21.2349 39.7853 21.9746C38.6174 22.7143 37.2631 23.1064 35.8807 23.105C35.0762 23.1042 34.4246 22.4513 34.4255 21.6468C34.4263 20.8422 35.0791 20.1907 35.8837 20.1915C36.7131 20.1923 37.5257 19.9571 38.2264 19.5133C38.9272 19.0695 39.4871 18.4354 39.8409 17.6852C40.1947 16.9349 40.3276 16.0995 40.2242 15.2765C40.1208 14.4535 39.7853 13.677 39.257 13.0376C38.7286 12.3982 38.0292 11.9223 37.2405 11.6656Z" fill="#F7B84B"/>
</svg>