<svg width="24" height="24" viewBox="0 0 24 24" fill="none" xmlns="http://www.w3.org/2000/svg">
<path fill-rule="evenodd" clip-rule="evenodd" d="M12 10.125C10.3431 10.125 9 11.4681 9 13.125C9 14.7819 10.3431 16.125 12 16.125C13.6569 16.125 15 14.7819 15 13.125C15 11.4681 13.6569 10.125 12 10.125ZM7.5 13.125C7.5 10.6397 9.51472 8.625 12 8.625C14.4853 8.625 16.5 10.6397 16.5 13.125C16.5 15.6103 14.4853 17.625 12 17.625C9.51472 17.625 7.5 15.6103 7.5 13.125Z" fill="#F7B84B"/>
<path fill-rule="evenodd" clip-rule="evenodd" d="M20.5562 12.1377C19.8794 11.7993 19.1329 11.6237 18.3763 11.625C17.962 11.6257 17.6257 11.2905 17.625 10.8763C17.6243 10.462 17.9595 10.1257 18.3737 10.125C19.3641 10.1233 20.3412 10.3531 21.227 10.796C22.1128 11.2389 22.8829 11.8827 23.4758 12.676C23.7237 13.0078 23.6558 13.4778 23.324 13.7258C22.9922 13.9737 22.5222 13.9058 22.2742 13.574C21.8213 12.9679 21.2329 12.4761 20.5562 12.1377Z" fill="#F7B84B"/>
<path fill-rule="evenodd" clip-rule="evenodd" d="M5.62379 11.625C4.86714 11.6237 4.12066 11.7993 3.44389 12.1377C2.76711 12.4761 2.17878 12.9679 1.7258 13.574C1.47782 13.9058 1.00784 13.9737 0.676049 13.7258C0.344263 13.4778 0.27632 13.0078 0.524293 12.676C1.11719 11.8827 1.88725 11.2389 2.77306 10.796C3.65888 10.3531 4.63593 10.1233 5.6263 10.125C6.04051 10.1257 6.37574 10.462 6.37504 10.8763C6.37435 11.2905 6.038 11.6257 5.62379 11.625Z" fill="#F7B84B"/>
<path fill-rule="evenodd" clip-rule="evenodd" d="M11.9998 17.6274C11.0146 17.6274 10.0493 17.9041 9.21374 18.4259C8.37818 18.9478 7.70598 19.6938 7.27373 20.5791C7.09198 20.9513 6.64291 21.1057 6.2707 20.9239C5.89849 20.7422 5.74408 20.2931 5.92583 19.9209C6.48137 18.7832 7.34528 17.8244 8.41915 17.1537C9.49302 16.483 10.7337 16.1274 11.9998 16.1274C13.2659 16.1274 14.5065 16.483 15.5804 17.1537C16.6543 17.8244 17.5182 18.7832 18.0737 19.9209C18.2555 20.2931 18.1011 20.7422 17.7289 20.9239C17.3567 21.1057 16.9076 20.9513 16.7258 20.5791C16.2936 19.6938 15.6214 18.9478 14.7858 18.4259C13.9503 17.9041 12.9849 17.6274 11.9998 17.6274Z" fill="#F7B84B"/>
<path fill-rule="evenodd" clip-rule="evenodd" d="M6.18087 5.6955C5.76721 5.58944 5.3319 5.60329 4.92581 5.73544C4.51972 5.86759 4.15963 6.11258 3.8876 6.44178C3.61558 6.77098 3.44286 7.1708 3.38962 7.59452C3.33639 8.01823 3.40484 8.44835 3.58697 8.83461C3.7691 9.22088 4.0574 9.54733 4.41818 9.77583C4.77895 10.0043 5.19731 10.1254 5.62435 10.125C6.03857 10.1246 6.3747 10.46 6.37512 10.8742C6.37554 11.2885 6.04009 11.6246 5.62588 11.625C4.91413 11.6257 4.21687 11.4239 3.61558 11.043C3.01429 10.6622 2.53379 10.1181 2.23024 9.47436C1.92668 8.83059 1.8126 8.11372 1.90132 7.40753C1.99005 6.70133 2.27792 6.03497 2.73129 5.4863C3.18466 4.93763 3.78482 4.52932 4.46163 4.30907C5.13844 4.08882 5.86396 4.06573 6.55341 4.24249C7.24286 4.41926 7.86776 4.78858 8.35511 5.30731C8.84245 5.82604 9.17211 6.47275 9.30556 7.17187C9.38323 7.57874 9.11636 7.97153 8.70949 8.0492C8.30262 8.12686 7.90983 7.85999 7.83217 7.45312C7.7521 7.03365 7.5543 6.64562 7.26189 6.33439C6.96949 6.02315 6.59454 5.80156 6.18087 5.6955Z" fill="#F7B84B"/>
<path fill-rule="evenodd" clip-rule="evenodd" d="M19.0743 5.73544C18.6683 5.60329 18.233 5.58944 17.8193 5.6955C17.4056 5.80156 17.0307 6.02315 16.7383 6.33439C16.4459 6.64562 16.2481 7.03365 16.168 7.45312C16.0903 7.85999 15.6975 8.12686 15.2907 8.0492C14.8838 7.97153 14.6169 7.57874 14.6946 7.17187C14.828 6.47275 15.1577 5.82604 15.645 5.30731C16.1324 4.78858 16.7573 4.41926 17.4467 4.24249C18.1362 4.06573 18.8617 4.08882 19.5385 4.30907C20.2153 4.52932 20.8155 4.93763 21.2689 5.4863C21.7222 6.03497 22.0101 6.70133 22.0988 7.40753C22.1876 8.11373 22.0735 8.83059 21.7699 9.47436C21.4664 10.1181 20.9859 10.6622 20.3846 11.043C19.7833 11.4239 19.086 11.6257 18.3743 11.625C17.9601 11.6246 17.6246 11.2885 17.625 10.8742C17.6255 10.46 17.9616 10.1246 18.3758 10.125C18.8028 10.1254 19.2212 10.0043 19.582 9.77583C19.9428 9.54733 20.2311 9.22088 20.4132 8.83461C20.5953 8.44835 20.6638 8.01823 20.6105 7.59452C20.5573 7.1708 20.3846 6.77098 20.1126 6.44178C19.8405 6.11258 19.4804 5.86759 19.0743 5.73544Z" fill="#F7B84B"/>
</svg>
